<?xml version="1.0" encoding="UTF-8"?>
<svg version="1.1" xmlns="http://www.w3.org/2000/svg" width="4454" height="1969">
<path d="M0 0 C1.91987732 -0.01052147 1.91987732 -0.01052147 3.87854004 -0.02125549 C7.98804227 -0.04064299 12.09748789 -0.04569047 16.20703125 -0.046875 C17.25989004 -0.04753778 17.25989004 -0.04753778 18.33401871 -0.04821396 C39.97691067 -0.05535121 61.45032097 0.30455004 82.95587158 2.94989014 C85.11415315 3.2147362 87.27350184 3.46931965 89.43310547 3.72314453 C111.53671431 6.35425712 133.32996392 10.206431 155.01953125 15.203125 C155.66776855 15.35245483 156.31600586 15.50178467 156.98388672 15.65563965 C197.07776236 24.9604352 235.752736 38.79052299 273.01953125 56.203125 C273.85178223 56.58645996 274.6840332 56.96979492 275.54150391 57.36474609 C320.59508482 78.12148349 362.94475293 105.4370134 401.01953125 137.203125 C401.60992188 137.69441895 402.2003125 138.18571289 402.80859375 138.69189453 C409.14717935 143.97701005 415.39459902 149.35262242 421.49438477 154.91333008 C423.04642825 156.32071824 424.6060875 157.71982786 426.17822266 159.10473633 C433.16623447 165.27957292 439.77158432 171.80213592 446.35229492 178.40551758 C448.21095233 180.26955744 450.07492739 182.12816012 451.93945312 183.98632812 C457.84616807 189.88939817 463.63622471 195.81208809 469.01953125 202.203125 C470.04076902 203.37171767 471.064207 204.53839126 472.08984375 205.703125 C522.25917058 263.07203902 561.34049346 329.43301187 587.01953125 401.203125 C587.6552002 402.97429687 587.6552002 402.97429687 588.30371094 404.78125 C609.52425246 464.54455834 620.13003321 527.16885111 621.57589722 590.48391724 C622.68356003 638.55958507 629.92739603 683.36455795 653.01953125 726.203125 C653.52685791 727.16557129 653.52685791 727.16557129 654.04443359 728.14746094 C663.43758199 745.91969982 675.33087895 762.02813647 688.88671875 776.84765625 C690.71448842 778.86623704 692.46299319 780.92540853 694.20703125 783.015625 C737.14568348 832.08837041 802.66132362 856.59150637 866.01953125 862.203125 C870.96953125 862.533125 875.91953125 862.863125 881.01953125 863.203125 C881.01953125 976.723125 881.01953125 1090.243125 881.01953125 1207.203125 C842.63487216 1207.203125 842.63487216 1207.203125 830.14453125 1206.015625 C829.41969543 1205.95032593 828.69485962 1205.88502686 827.94805908 1205.81774902 C799.30363085 1203.23401653 771.04790654 1198.62703335 743.01953125 1192.203125 C742.36786987 1192.05379517 741.7162085 1191.90446533 741.0447998 1191.75061035 C680.63263011 1177.80350493 621.92929066 1153.45162336 569.01953125 1121.203125 C568.00632812 1120.58937012 566.993125 1119.97561523 565.94921875 1119.34326172 C552.53123429 1111.19032285 539.58695832 1102.61111029 527.01953125 1093.203125 C525.58234266 1092.13760067 524.14484267 1091.07249623 522.70703125 1090.0078125 C515.35970025 1084.5496499 508.11213615 1078.99012601 501.01953125 1073.203125 C500.12878906 1072.48640625 499.23804687 1071.7696875 498.3203125 1071.03125 C492.8461286 1066.60303987 487.53700479 1062.04218683 482.33203125 1057.30078125 C480.35568753 1055.50805054 478.35496395 1053.75517273 476.33203125 1052.015625 C472.29421564 1048.49695711 468.37541234 1044.85348442 464.45703125 1041.203125 C463.83159424 1040.62151611 463.20615723 1040.03990723 462.56176758 1039.44067383 C458.29126233 1035.44839932 454.12821942 1031.36158194 450.01953125 1027.203125 C446.66909728 1028.65501094 444.51466929 1030.4850909 441.97265625 1033.08984375 C441.20953125 1033.86392578 440.44640625 1034.63800781 439.66015625 1035.43554688 C438.47679688 1036.65081055 438.47679688 1036.65081055 437.26953125 1037.890625 C431.7051168 1043.58023878 426.0634593 1049.02585756 420.01953125 1054.203125 C418.41184752 1055.65758017 416.8071341 1057.11533395 415.20703125 1058.578125 C409.95772148 1063.30888593 404.5232918 1067.77309552 399.01953125 1072.203125 C397.88639428 1073.12850908 396.75359676 1074.05430893 395.62109375 1074.98046875 C366.32165041 1098.83070018 334.20388072 1119.23002148 301.01953125 1137.203125 C300.24125977 1137.62916016 299.46298828 1138.05519531 298.66113281 1138.49414062 C220.20196127 1181.3246629 125.85602052 1207.09797187 36.26171875 1207.40625 C34.8777615 1207.41331426 33.4938046 1207.42044694 32.10984802 1207.42764282 C27.70473705 1207.44718995 23.29968152 1207.45233551 18.89453125 1207.453125 C17.76744059 1207.45356686 17.76744059 1207.45356686 16.61758041 1207.45401764 C-6.37090584 1207.4554737 -29.15337776 1207.17533465 -51.98046875 1204.203125 C-52.74593018 1204.10602234 -53.5113916 1204.00891968 -54.30004883 1203.90887451 C-139.66659029 1193.05402155 -222.45155614 1165.60181306 -303.98046875 1115.203125 C-304.8420459 1114.66381348 -305.70362305 1114.12450195 -306.59130859 1113.56884766 C-346.05261476 1088.74176153 -381.53783565 1058.68913559 -414.48046875 1025.828125 C-415.09496887 1025.21630371 -415.70946899 1024.60448242 -416.34259033 1023.97412109 C-422.77668057 1017.56130093 -429.11698633 1011.14948531 -434.98046875 1004.203125 C-436.02506583 1003.01102092 -437.07194608 1001.82091366 -438.12109375 1000.6328125 C-444.89876745 992.90073388 -451.41936947 985.02525134 -457.68945312 976.87646484 C-458.93964512 975.25603823 -460.20054153 973.64458693 -461.46484375 972.03515625 C-518.17930699 899.3358841 -557.26024606 812.77063394 -581.79296875 682.578125 C-581.89251862 681.84062012 -581.99206848 681.10311523 -582.09463501 680.34326172 C-585.3392548 655.9547245 -586.36112646 631.62013881 -586.29852676 607.04537201 C-586.2928802 604.79280018 -586.29006355 602.54023589 -586.28744507 600.28765869 C-586.25003354 578.14056897 -585.80711044 556.19577618 -582.98046875 534.203125 C-582.80701147 532.81007321 -582.63367434 531.41700646 -582.46044922 530.02392578 C-575.12760524 471.96401557 -560.17402449 414.57557524 -535.98046875 361.203125 C-535.26576416 359.60307617 -535.26576416 359.60307617 -534.53662109 357.97070312 C-512.37021563 308.39391225 -483.78813585 261.9235038 -448.98046875 220.203125 C-448.4891748 219.61273438 -447.99788086 219.02234375 -447.49169922 218.4140625 C-441.47724037 211.20075522 -435.30752429 204.14447015 -428.98046875 197.203125 C-428.18858154 196.32640137 -427.39669434 195.44967773 -426.58081055 194.54638672 C-420.19793045 187.51636939 -413.63614847 180.70188824 -406.90893555 174.0012207 C-405.27990303 172.37760271 -403.65636147 170.74862897 -402.03320312 169.11914062 C-396.52045694 163.60288843 -390.92147875 158.26033384 -384.98046875 153.203125 C-383.37278502 151.74866983 -381.7680716 150.29091605 -380.16796875 148.828125 C-374.91865898 144.09736407 -369.4842293 139.63315448 -363.98046875 135.203125 C-362.84733178 134.27774092 -361.71453426 133.35194107 -360.58203125 132.42578125 C-290.76575553 75.5941782 -207.01086561 35.37092231 0 0 Z M-140.98046875 398.203125 C-142.34171875 399.27626953 -142.34171875 399.27626953 -143.73046875 400.37109375 C-158.83806664 412.49579944 -173.0550328 425.91573104 -184.98046875 441.203125 C-185.769375 442.18667969 -186.55828125 443.17023438 -187.37109375 444.18359375 C-217.53144269 482.10935214 -235.51997787 528.19709666 -240.98046875 576.203125 C-241.07618164 577.04447998 -241.17189453 577.88583496 -241.27050781 578.75268555 C-247.96431487 644.04129653 -227.67165165 712.98936984 -186.41796875 764.015625 C-184.94619099 765.75108506 -183.46653964 767.4798883 -181.98046875 769.203125 C-181.03523288 770.33100538 -180.09130208 771.45998032 -179.1484375 772.58984375 C-170.49689136 782.89991834 -161.3653716 792.60148829 -150.98046875 801.203125 C-150.4812793 801.62142578 -149.98208984 802.03972656 -149.46777344 802.47070312 C-96.40968081 846.75250068 -28.78621861 867.91819535 40.09375 862.7421875 C70.94859656 859.91543056 101.16893243 851.81857607 129.01953125 838.203125 C130.2420459 837.61023682 130.2420459 837.61023682 131.48925781 837.00537109 C165.40890503 820.38074734 196.70852291 796.08585378 220.01953125 766.203125 C220.8084375 765.21957031 221.59734375 764.23601562 222.41015625 763.22265625 C264.5790582 710.20269085 282.94766777 641.56820377 275.89453125 574.453125 C272.4881 545.89829002 264.6558666 518.05092869 252.01953125 492.203125 C251.42664307 490.98061035 251.42664307 490.98061035 250.82177734 489.73339844 C234.19177734 455.80278191 209.89734131 424.53350927 180.01953125 401.203125 C179.05917969 400.42582031 178.09882812 399.64851563 177.109375 398.84765625 C96.27009955 334.56459145 -17.35692818 327.53168465 -140.98046875 398.203125 Z " fill="#E7732E" transform="translate(1649.98046875,-0.203125)"/>
<path d="M0 0 C2.25546719 0.0056467 4.51092684 0.00846312 6.76639938 0.0110817 C28.57270405 0.0478792 50.13097015 0.50170492 71.78254318 3.31805801 C73.19778992 3.49235743 74.61315894 3.66566624 76.02863693 3.83807755 C97.83970978 6.520649 119.36493524 10.40929149 140.78254318 15.31805801 C141.43420456 15.46738785 142.08586594 15.61671768 142.75727463 15.77057266 C203.13397185 29.7094887 261.93774895 54.0122866 314.78254318 86.31805801 C315.62849045 86.83464981 316.47443771 87.35124161 317.34601974 87.8834877 C341.6759279 102.82694608 365.01971271 119.30507914 386.86164474 137.7013588 C388.6600837 139.21499158 390.46604704 140.71903886 392.27473068 142.22040176 C399.44534547 148.19697451 406.34021912 154.43148576 413.15754318 160.80633926 C414.77368007 162.30981277 416.40085135 163.80024261 418.03254318 165.28680801 C427.739115 174.14103151 437.40911569 183.14295737 445.91926193 193.17352676 C447.92312934 195.47986472 449.99508038 197.71029692 452.08088303 199.94232559 C457.92363354 206.19853801 463.42483098 212.63842663 468.78254318 219.31805801 C469.76530968 220.51079143 470.74979249 221.70211202 471.73566818 222.89227676 C533.00860592 297.06676002 574.63128418 386.65190392 607.07258224 595.89056778 C608.04886633 655.93426477 623.03185011 713.41838296 660.78254318 761.31805801 C661.56371506 762.31063614 662.34488693 763.30321426 663.14973068 764.32587051 C676.10498441 780.41907497 690.38230398 795.72554162 707.03937912 808.02362442 C708.81739189 809.34393587 710.57007989 810.69332812 712.32160568 812.04852676 C757.69741997 846.750559 810.76421582 859.31674892 866.78254318 863.31805801 C866.78254318 976.83805801 866.78254318 1090.35805801 866.78254318 1207.31805801 C828.3986552 1207.31805801 828.3986552 1207.31805801 815.90754318 1206.13055801 C815.18237503 1206.06525894 814.45720688 1205.99995987 813.71006393 1205.93268204 C733.96844949 1198.7437309 657.54571707 1176.09055076 489.78254318 1076.31805801 C488.38842209 1075.19850723 488.38842209 1075.19850723 486.96613693 1074.05633926 C468.95001744 1059.44938357 452.06580433 1043.8271271 435.78254318 1027.31805801 C432.77572518 1028.65805299 430.78491709 1030.11651093 428.53254318 1032.50555801 C426.08227726 1035.03402391 423.58422267 1037.40561678 420.90754318 1039.69305801 C417.94846724 1042.23752255 415.19282598 1044.89747354 412.47004318 1047.69305801 C408.3960498 1051.8230513 404.05015796 1055.45302153 399.52473068 1059.07587051 C396.92166367 1061.20430423 394.44245685 1063.41519493 391.97004318 1065.69305801 C386.47965439 1070.6765095 380.70384511 1075.24385247 374.82404709 1079.75214005 C373.42518635 1080.82512412 372.02916176 1081.90181296 370.63557053 1082.98163223 C301.97966253 1136.09562058 221.9848374 1173.34711111 70.78254318 1203.31805801 C70.78254318 1088.14805801 70.78254318 972.97805801 70.78254318 854.31805801 C79.66292596 850.98791447 79.66292596 850.98791447 83.09504318 849.88055801 C121.04380492 837.32437061 154.1804432 816.67076604 183.34504318 789.50555801 C183.98772141 788.90767471 184.63039963 788.30979141 185.29255295 787.69379044 C189.75017715 783.47142164 193.81512177 779.00096329 197.78254318 774.31805801 C198.3019548 773.71018448 198.82136642 773.10231094 199.35651779 772.476017 C235.97906994 729.27973717 260.68504834 672.75670926 260.98566818 615.52508926 C260.99272781 614.62468414 260.99978745 613.72427902 261.007061 612.7965889 C261.27227434 585.41414237 261.27227434 585.41414237 257.78254318 558.31805801 C257.58918381 557.31855118 257.39582443 556.31904434 257.19660568 555.28924942 C252.0242601 529.12021394 243.02353434 504.97547356 230.78254318 481.31805801 C230.38035568 480.5372084 229.97816818 479.7563588 229.56379318 478.95184708 C220.11012908 460.82411791 207.63952354 444.69760524 193.88410568 429.64227676 C192.04869481 427.61240786 190.28872874 425.54096441 188.53254318 423.44305801 C178.65628044 412.19133403 166.77527243 403.16817161 154.78254318 394.31805801 C153.49476974 393.35126114 153.49476974 393.35126114 152.18098068 392.36493301 C130.87634311 376.85696361 106.86393462 365.20462919 81.78254318 357.31805801 C80.9826799 357.05686172 80.18281662 356.79566544 79.35871506 356.52655411 C54.97601565 348.61244217 29.24402487 345.09074107 3.65754318 345.06805801 C2.96378586 345.06738327 2.27002853 345.06670853 1.55524826 345.06601334 C-12.18777232 345.08700373 -25.63433187 346.15167992 -39.21745682 348.31805801 C-40.17925858 348.46839493 -41.14106033 348.61873184 -42.1320076 348.77362442 C-83.59772454 355.56584851 -124.81891322 373.54662989 -157.21745682 400.31805801 C-157.74210526 400.74796036 -158.26675369 401.1778627 -158.80730057 401.62079239 C-174.68262278 414.65987598 -189.33946372 428.46937304 -201.69060135 444.95038223 C-202.82258429 446.4404543 -204.01490724 447.88433048 -205.21745682 449.31805801 C-205.87745682 449.31805801 -206.53745682 449.31805801 -207.21745682 449.31805801 C-207.52336746 448.1882753 -207.82927811 447.05849258 -208.14445877 445.89447403 C-225.33097423 382.60183793 -247.58352133 321.42977954 -281.59148026 265.02753067 C-283.13667965 262.45266237 -284.65417159 259.86371728 -286.16276932 257.26727676 C-300.9904978 231.89157261 -318.08231691 207.64274244 -336.82487869 185.01044083 C-338.67458759 182.76251269 -340.47783235 180.47922418 -342.27995682 178.19305801 C-350.00501778 168.52050269 -358.19023605 159.24793047 -366.59245682 150.16180801 C-370.50955971 145.91827988 -374.36364218 141.61910546 -378.21745682 137.31805801 C-376.67920918 133.17147741 -373.6923128 131.02421127 -370.27995682 128.44305801 C-369.66732986 127.9718251 -369.05470291 127.50059219 -368.42351151 127.0150795 C-366.36291401 125.43844119 -364.29148781 123.87697632 -362.21745682 122.31805801 C-361.48188553 121.76231094 -360.74631424 121.20656387 -359.98845291 120.63397598 C-291.23510993 68.82347344 -211.43418614 31.52275618 -72.46745682 4.00555801 C-71.30568924 3.85820206 -70.14392166 3.7108461 -68.94694901 3.55902481 C-65.04119598 3.09744073 -61.13220163 2.6935762 -57.21745682 2.31805801 C-56.33911179 2.23192245 -55.46076675 2.1457869 -54.55580521 2.05704117 C-36.36435047 0.32309005 -18.25528542 -0.04644158 0 0 Z " fill="#2C91E4" transform="translate(2528.217456817627,-0.3180580139160156)"/>
<path d="M0 0 C19.8 0 39.6 0 60 0 C68.53666742 10.50666759 77.00633615 21.04032816 85.33398438 31.70898438 C90.67691211 38.54949185 96.07175878 45.33983087 101.5625 52.0625 C106.28835664 57.84867154 110.87667911 63.71486481 115.40625 69.65625 C118.36211063 73.49886881 121.43107807 77.2475131 124.5 81 C129.25268786 86.81129119 133.86651993 92.70131532 138.41796875 98.671875 C141.30647402 102.42704455 144.30995713 106.08585728 147.3125 109.75 C151.8015057 115.23055579 156.16373217 120.78765429 160.4375 126.4375 C165.45552085 133.06731462 170.66303033 139.51044841 175.97802734 145.90380859 C180.2596228 151.06539686 184.36459118 156.32766969 188.421875 161.66796875 C191.98652178 166.31929442 195.71949524 170.83695436 199.44750977 175.35766602 C200.2256604 176.3059729 200.2256604 176.3059729 201.01953125 177.2734375 C201.47432861 177.82435059 201.92912598 178.37526367 202.39770508 178.94287109 C204.69346902 181.89031997 206.82847148 184.95986007 209 188 C209.33 125.96 209.66 63.92 210 0 C235.08 0 260.16 0 286 0 C286 107.25 286 214.5 286 325 C265.54 325 245.08 325 224 325 C208.8625 306.61875 208.8625 306.61875 204.109375 300.63671875 C201.32474316 297.15592895 198.50425028 293.70481217 195.6875 290.25 C191.59422803 285.22649233 187.54618008 280.17330246 183.5625 275.0625 C178.88280195 269.06160708 174.05641518 263.19036601 169.20263672 257.32983398 C164.99738913 252.24112617 160.88862044 247.08650766 156.82763672 241.88232422 C153.42484539 237.52559655 149.94879057 233.23482388 146.4375 228.96484375 C139.39446671 220.3980773 132.38220345 211.80852369 125.5625 203.0625 C120.88268255 197.06169693 116.05641858 191.19037012 111.20263672 185.32983398 C107.0003826 180.24474852 102.89411961 175.09410967 98.83642578 169.89331055 C94.64312082 164.52379676 90.33122606 159.25934592 86 154 C83.03 150.37 80.06 146.74 77 143 C76.67 203.06 76.34 263.12 76 325 C50.92 325 25.84 325 0 325 C0 217.75 0 110.5 0 0 Z " fill="#FFFFFF" transform="translate(1002,1466)"/>
<path d="M0 0 C19.47 0 38.94 0 59 0 C73.95121951 18.15505226 73.95121951 18.15505226 80.44140625 26.69140625 C83.3807382 30.52617927 86.44098527 34.26051509 89.5 38 C94.24862969 43.80617575 98.85853483 49.69106516 103.40625 55.65625 C106.36211063 59.49886881 109.43107807 63.2475131 112.5 67 C117.25268786 72.81129119 121.86651993 78.70131532 126.41796875 84.671875 C129.30647402 88.42704455 132.30995713 92.08585728 135.3125 95.75 C139.80150514 101.23055511 144.16374332 106.78764692 148.4375 112.4375 C153.38591513 118.97559629 158.52286788 125.32427476 163.76928711 131.62475586 C167.80530469 136.49291895 171.68824672 141.45477658 175.5 146.5 C180.48765913 153.10147035 185.66592569 159.51301466 190.95410156 165.87548828 C196.88766798 173.03027715 202.84070913 180.26106369 208 188 C208.33 125.96 208.66 63.92 209 0 C234.08 0 259.16 0 285 0 C285 107.25 285 214.5 285 325 C264.54 325 244.08 325 223 325 C202.24852866 299.63709058 202.24852866 299.63709058 195.5625 291.0625 C190.88268255 285.06169693 186.05641858 279.19037012 181.20263672 273.32983398 C176.99738913 268.24112617 172.88862044 263.08650766 168.82763672 257.88232422 C165.42484539 253.52559655 161.94879057 249.23482388 158.4375 244.96484375 C151.39446671 236.3980773 144.38220345 227.80852369 137.5625 219.0625 C132.88268255 213.06169693 128.05641858 207.19037012 123.20263672 201.32983398 C118.99738913 196.24112617 114.88862044 191.08650766 110.82763672 185.88232422 C106.637265 180.51722638 102.32466238 175.25729724 98 170 C95.82906229 167.3576386 93.66342498 164.71101475 91.5 162.0625 C90.99033691 161.44262207 90.48067383 160.82274414 89.95556641 160.18408203 C85.11009059 154.24520543 80.61340452 148.15120602 76 142 C75.67 202.39 75.34 262.78 75 325 C50.25 325 25.5 325 0 325 C0 217.75 0 110.5 0 0 Z " fill="#FFFFFF" transform="translate(1802,1466)"/>
<path d="M0 0 C25.08 0 50.16 0 76 0 C76.33 45.21 76.66 90.42 77 137 C91.90691922 119.9412976 91.90691922 119.9412976 106.4375 102.5625 C111.59186792 96.21723119 116.97362765 90.07490552 122.34033203 83.90966797 C128.4607846 76.86727609 134.56030337 69.80997199 140.4375 62.5625 C145.59186792 56.21723119 150.97362765 50.07490552 156.34033203 43.90966797 C162.4607846 36.86727609 168.56030337 29.80997199 174.4375 22.5625 C178.18619052 17.94554661 182.04262352 13.43101263 185.9375 8.9375 C186.79009399 7.95342163 186.79009399 7.95342163 187.65991211 6.94946289 C193.68510411 0.02208365 193.68510411 0.02208365 197.42947388 -0.24050903 C198.93230743 -0.24633223 200.43520759 -0.24093517 201.93798828 -0.22705078 C203.16737625 -0.22748886 203.16737625 -0.22748886 204.42160034 -0.22793579 C207.13794443 -0.22653944 209.85401618 -0.21096401 212.5703125 -0.1953125 C214.45075328 -0.19158345 216.33119599 -0.18873597 218.2116394 -0.18673706 C223.16665998 -0.17909207 228.12156374 -0.15943619 233.07653809 -0.1373291 C238.1304364 -0.11688928 243.18435354 -0.10773934 248.23828125 -0.09765625 C258.15890555 -0.07619109 268.07944307 -0.04204474 278 0 C276.49658602 4.00606088 274.89372829 6.50714371 271.9375 9.625 C268.73339438 13.08420957 265.65157731 16.58276566 262.6875 20.25 C259.19567292 24.56450885 255.62423581 28.79709511 252 33 C248.44532786 37.12455611 244.9320737 41.27208312 241.5 45.5 C237.5662143 50.34596789 233.51552241 55.08098528 229.44140625 59.80859375 C226.41041716 63.33317903 223.43007419 66.89048832 220.5 70.5 C217.06791987 74.7279248 213.55448829 78.8752789 210 83 C205.67827137 88.01591689 201.44520804 93.09175299 197.26953125 98.23046875 C192.45311061 104.10799411 187.505057 109.87611914 182.58398438 115.66601562 C174.14774463 125.59580819 165.77621514 135.53884823 158 146 C158.3717334 146.50225098 158.7434668 147.00450195 159.12646484 147.52197266 C165.55753404 156.21630257 171.98093013 164.91330023 178.24633789 173.72802734 C181.57994002 178.41786533 184.94165852 183.08686135 188.3125 187.75 C188.86043213 188.50804932 189.40836426 189.26609863 189.97290039 190.04711914 C191.09072453 191.59333097 192.20864504 193.13947313 193.32666016 194.68554688 C196.05263139 198.45593019 198.77621534 202.22803694 201.5 206 C202.58332144 207.50000859 203.66665479 209.00000858 204.75 210.5 C224.25 237.5 243.75 264.5 263.25 291.5 C264.0558252 292.61556274 264.0558252 292.61556274 264.87792969 293.75366211 C265.95199751 295.24109408 267.02557219 296.72888227 268.09863281 298.21704102 C270.94460992 302.16252145 273.80100078 306.09993336 276.671875 310.02734375 C277.27064453 310.84912109 277.86941406 311.67089844 278.48632812 312.51757812 C279.63815061 314.09798572 280.79297057 315.67621427 281.95117188 317.25195312 C282.46744141 317.96158203 282.98371094 318.67121094 283.515625 319.40234375 C284.20060059 320.33808228 284.20060059 320.33808228 284.89941406 321.29272461 C286 323 286 323 287 326 C275.90825317 326.20875822 264.81697539 326.36855886 253.72366238 326.46630955 C248.57214796 326.51323219 243.42197979 326.57684588 238.27124023 326.67895508 C233.29795731 326.77692652 228.32596689 326.83059469 223.35179329 326.85389519 C221.45664178 326.87049349 219.56155914 326.9029091 217.66695976 326.95157051 C202.83078373 327.31738493 202.83078373 327.31738493 198.35466003 324.09648132 C196.53991312 321.79918017 195.28144701 319.62352321 194 317 C192.93782827 315.46725965 191.85551258 313.94811555 190.74609375 312.44921875 C189.64084608 310.86363767 188.53806505 309.27633491 187.4375 307.6875 C186.20968859 305.92444214 184.98182243 304.1614224 183.75390625 302.3984375 C183.13273926 301.50479492 182.51157227 300.61115234 181.87158203 299.69042969 C178.88126776 295.39180417 175.87831105 291.10205063 172.875 286.8125 C172.29290771 285.98065186 171.71081543 285.14880371 171.11108398 284.29174805 C166.93576838 278.32776301 162.74133364 272.37752622 158.53857422 266.43286133 C154.07573897 260.1165396 149.6427678 253.77950417 145.2109375 247.44140625 C141.48715734 242.1182051 137.75019572 236.80461921 134 231.5 C129.48642624 225.11365959 124.98780759 218.71697541 120.5 212.3125 C119.61828125 211.05566406 119.61828125 211.05566406 118.71875 209.7734375 C115.76047745 205.54831212 112.83855705 201.30653631 110 197 C106.98611927 198.35058114 104.8965323 199.85604775 102.57421875 202.1953125 C101.94580078 202.82501953 101.31738281 203.45472656 100.66992188 204.10351562 C100.01572266 204.77060547 99.36152344 205.43769531 98.6875 206.125 C98.01396484 206.80498047 97.34042969 207.48496094 96.64648438 208.18554688 C92.82747944 212.06393381 89.07873948 215.97082719 85.62031651 220.17864132 C84 222 84 222 82.20694637 223.53529453 C78.69581819 226.55759684 76.58711256 228.77179491 76.12025452 233.48631287 C76.08259701 235.19285386 76.08258786 236.90050169 76.11352539 238.60717773 C76.09736176 240.01322517 76.09736176 240.01322517 76.08087158 241.44767761 C76.05359652 244.52712822 76.07531202 247.6041375 76.09765625 250.68359375 C76.08826826 252.82594823 76.07580868 254.96829126 76.06040955 257.11061096 C76.02820561 262.73487005 76.03761846 268.35831311 76.05578613 273.98260498 C76.06891458 280.73838647 76.03020037 287.494047 76.00020599 294.24974823 C75.96048428 304.50028673 75.98649377 314.74877119 76 325 C50.92 325 25.84 325 0 325 C0 217.75 0 110.5 0 0 Z " fill="#FFFFFF" transform="translate(409,1466)"/>
<path d="M0 0 C0.82371094 0.65415894 0.82371094 0.65415894 1.6640625 1.3215332 C1.05000647 5.71123866 -0.56870976 9.00657235 -2.66015625 12.89575195 C-3.16776993 13.84609062 -3.16776993 13.84609062 -3.68563843 14.81562805 C-4.79209879 16.88345649 -5.90765054 18.94622477 -7.0234375 21.0090332 C-7.78954389 22.43646568 -8.55508238 23.86420309 -9.32006836 25.29223633 C-11.27091902 28.93029467 -13.2293598 32.56420486 -15.19006348 36.19696045 C-16.99013529 39.53448575 -18.78392043 42.87538258 -20.578125 46.21606445 C-23.82314952 52.2553172 -27.07646796 58.29006468 -30.3359375 64.3215332 C-33.35088221 62.85178822 -36.16530819 61.19235575 -39.00317383 59.40283203 C-66.21284861 42.42170423 -101.5688291 29.14895999 -133.9609375 35.5715332 C-142.74210419 37.76175492 -149.30362035 40.49164501 -154.3359375 48.3215332 C-156.96218502 54.76777712 -157.34325465 61.68229842 -155.3984375 68.3840332 C-151.56664679 77.20240086 -142.50040101 81.96048027 -134.04296875 85.54418945 C-123.75675312 89.59318717 -112.96678167 92.34278748 -102.3359375 95.3215332 C-17.69735111 119.16499534 -17.69735111 119.16499534 0.9140625 151.0715332 C13.89513622 174.36959515 15.38541643 203.55365065 8.34423828 229.08129883 C1.0883987 252.97921125 -15.16106474 270.6792999 -36.93701172 282.49243164 C-51.71962198 290.15421769 -67.9269279 294.03381772 -84.3359375 296.3215332 C-85.64046875 296.50586914 -86.945 296.69020508 -88.2890625 296.88012695 C-95.46157533 297.64104499 -102.69330275 297.56588782 -109.8984375 297.5715332 C-110.67393951 297.57220795 -111.44944153 297.57288269 -112.2484436 297.57357788 C-125.80809846 297.55492588 -138.95772426 296.64277055 -152.3359375 294.3215332 C-153.72522461 294.09602783 -153.72522461 294.09602783 -155.14257812 293.8659668 C-184.92146899 288.92505158 -227.4418204 278.2156503 -249.3359375 256.3215332 C-238.7759375 235.2015332 -228.2159375 214.0815332 -217.3359375 192.3215332 C-212.70771749 192.3215332 -212.12241893 192.96130561 -208.6484375 195.7590332 C-191.2829751 208.75453075 -170.26907036 216.1685236 -149.6484375 222.2590332 C-148.21649048 222.68273193 -148.21649048 222.68273193 -146.75561523 223.11499023 C-125.88876475 229.0364923 -99.32500758 232.71440116 -79.3359375 222.3215332 C-74.79785686 219.63906604 -72.37359681 216.40455351 -70.8046875 211.42700195 C-69.3898397 205.07197725 -69.93022539 198.95743744 -73.3359375 193.3215332 C-87.88720828 176.01282983 -115.9649828 171.57834378 -136.5904541 165.53494263 C-164.80992305 157.26031359 -193.83102801 148.39562648 -215.3359375 127.3215332 C-216.03589844 126.65766602 -216.73585937 125.99379883 -217.45703125 125.30981445 C-226.59420817 115.9589024 -232.13708346 103.09669347 -234.3359375 90.3215332 C-234.51769531 89.27868164 -234.69945313 88.23583008 -234.88671875 87.16137695 C-238.11677274 59.55143717 -232.82020636 31.88328694 -215.8359375 9.5090332 C-214.68000871 8.10429463 -213.51337504 6.70829297 -212.3359375 5.3215332 C-211.75585938 4.59708008 -211.17578125 3.87262695 -210.578125 3.1262207 C-162.20114011 -54.966644 -55.05160895 -39.55683649 0 0 Z " fill="#FFFFFF" transform="translate(4442.3359375,1497.678466796875)"/>
<path d="M0 0 C22.44 0 44.88 0 68 0 C72.50016917 10.12538063 72.50016917 10.12538063 74.23217773 14.88452148 C74.62537201 15.9601535 75.01856628 17.03578552 75.42367554 18.14401245 C76.04733505 19.86516769 76.04733505 19.86516769 76.68359375 21.62109375 C77.13143219 22.84925812 77.57927063 24.07742249 78.04067993 25.34280396 C79.25683372 28.67844294 80.46899698 32.01551908 81.68037796 35.35289383 C82.69977899 38.15964039 83.72165549 40.9654828 84.74357891 43.77131176 C92.32372184 64.58378043 99.86157817 85.41159521 107.39276123 106.24182129 C112.84148214 121.3115504 118.32117803 136.36865863 123.88012695 151.39807129 C129.16298898 165.68284851 134.36644945 179.99594358 139.5625 194.3125 C146.57198375 213.62389394 153.63736377 232.91386656 160.75 252.1875 C166.9362176 268.95703251 173.12052429 285.72721571 179.24694824 302.51870728 C179.95179227 304.44943811 180.65774799 306.3797635 181.36486816 308.30966187 C182.32580698 310.93317506 183.28266058 313.55813961 184.23828125 316.18359375 C184.52151749 316.95455383 184.80475372 317.72551392 185.09657288 318.51983643 C187 323.77108199 187 323.77108199 187 326 C161.26 326 135.52 326 109 326 C106.73125 319.503125 104.4625 313.00625 102.125 306.3125 C101.43293457 304.33161377 100.74086914 302.35072754 100.02783203 300.30981445 C94.64498886 284.88666945 89.3253504 269.44351616 84 254 C51 254 18 254 -16 254 C-22.73401876 273.95282503 -22.73401876 273.95282503 -29.46191406 293.90771484 C-30.3129309 296.42553015 -31.16415422 298.94327567 -32.015625 301.4609375 C-32.23103943 302.10165192 -32.44645386 302.74236633 -32.668396 303.40249634 C-33.31568419 305.32701161 -33.96657355 307.25027759 -34.61816406 309.17333984 C-34.98234436 310.25255707 -35.34652466 311.33177429 -35.72174072 312.44369507 C-37.36197806 317.0070761 -39.1990491 321.49762276 -41 326 C-66.41 326 -91.82 326 -118 326 C-117.29283201 321.75699205 -116.62384379 318.55600324 -115.20019531 314.6237793 C-114.82677002 313.58470428 -114.45334473 312.54562927 -114.06860352 311.47506714 C-113.65924561 310.35278717 -113.2498877 309.2305072 -112.828125 308.07421875 C-112.39846436 306.88410187 -111.96880371 305.69398499 -111.52612305 304.46780396 C-110.35239299 301.21778931 -109.17198902 297.97023565 -107.9901886 294.72314835 C-106.99508158 291.98642967 -106.00391681 289.24829001 -105.01267624 286.51016903 C-97.73043308 266.39728115 -90.35098754 246.32055453 -82.93572998 226.25634766 C-76.83925332 209.76029907 -70.81448851 193.24071907 -64.875 176.6875 C-51.32268391 138.92494218 -37.48443936 101.26775943 -23.59936523 63.62646484 C-19.51124481 52.5422844 -15.42917037 41.45602518 -11.375 30.359375 C-11.01887634 29.38469772 -10.66275269 28.41002045 -10.2958374 27.4058075 C-8.64602382 22.88887647 -6.99809596 18.37126664 -5.35253906 13.8527832 C-4.78191057 12.28857074 -4.21127314 10.72436154 -3.640625 9.16015625 C-3.38442383 8.4548175 -3.12822266 7.74947876 -2.86425781 7.02276611 C-1.11299071 2.22598142 -1.11299071 2.22598142 0 0 Z M33 89 C32.79305511 89.62305527 32.58611023 90.24611053 32.37289429 90.88804626 C29.70951382 98.90539097 27.0431149 106.92172984 24.375 114.9375 C24.05359102 115.90323189 24.05359102 115.90323189 23.72568893 116.88847351 C17.36054097 136.01184145 10.93893262 155.11430157 4.36669922 174.16772461 C3.96448906 175.33720894 3.96448906 175.33720894 3.55415344 176.53031921 C3.07213249 177.93144816 2.58848925 179.3320212 2.10246277 180.73176575 C-0.092199 187.11473872 -2.01079873 193.53509586 -4 200 C20.75 200 45.5 200 71 200 C69.20664557 193.42436709 67.41968938 186.9601574 65.27612305 180.50952148 C64.89490295 179.35079277 64.89490295 179.35079277 64.50598145 178.1686554 C63.67723742 175.65190984 62.84452934 173.13649626 62.01171875 170.62109375 C61.42479555 168.84155492 60.83811505 167.06193604 60.25166321 165.28224182 C58.71280709 160.61459607 57.17053649 155.9480855 55.62756348 151.28179932 C54.07568875 146.58637573 52.52731876 141.88979682 50.97851562 137.19335938 C45.67630425 121.12087024 40.35970879 105.05341816 35 89 C34.34 89 33.68 89 33 89 Z " fill="#F47000" transform="translate(118,1466)"/>
<path d="M0 0 C22.77 0 45.54 0 69 0 C79.3051316 27.48035093 79.3051316 27.48035093 82.515625 36.37109375 C83.28854859 38.50302036 84.06149896 40.63493726 84.83447266 42.7668457 C85.42364471 44.39404037 85.42364471 44.39404037 86.02471924 46.05410767 C93.48921027 66.66595641 101.02796911 87.24915826 108.625 107.8125 C115.20179007 125.61867897 121.71345141 143.44614344 128.125 161.3125 C134.14247168 178.07911633 140.196675 194.83147998 146.3125 211.5625 C146.70011505 212.62296539 147.0877301 213.68343079 147.48709106 214.77603149 C152.14447298 227.51256749 156.82254982 240.24142071 161.515625 252.96484375 C161.98394311 254.23474613 162.45226078 255.50464868 162.920578 256.77455139 C165.15130614 262.82272584 167.384078 268.8701364 169.62036133 274.91625977 C173.76626569 286.13499189 177.88658845 297.36326352 181.94100761 308.61541748 C182.60772849 310.46296361 183.27892446 312.30889286 183.95021057 314.15478516 C184.35005661 315.26901855 184.74990265 316.38325195 185.16186523 317.53125 C185.51756088 318.51673828 185.87325653 319.50222656 186.23973083 320.51757812 C187 323 187 323 187 326 C161.59 326 136.18 326 110 326 C104.37546801 312.50112322 104.37546801 312.50112322 102.81176758 307.85180664 C102.45822708 306.80775162 102.10468658 305.76369659 101.74043274 304.68800354 C101.1979615 303.06546913 101.1979615 303.06546913 100.64453125 301.41015625 C100.25682053 300.26260361 99.8691098 299.11505096 99.46965027 297.932724 C98.24660943 294.31064684 97.02926009 290.68669132 95.8125 287.0625 C94.58402365 283.41366285 93.35433656 279.76523971 92.12321472 276.11729431 C91.361291 273.85857984 90.60105485 271.59929521 89.84272766 269.33937073 C89.49864365 268.31738083 89.15455963 267.29539093 88.80004883 266.24243164 C88.49980301 265.34818985 88.19955719 264.45394806 87.89021301 263.53260803 C87.2770727 261.78825688 86.60547543 260.06372856 85.88749695 258.35984802 C85 256 85 256 85 253 C51.67 253 18.34 253 -16 253 C-16.99 256.63 -17.98 260.26 -19 264 C-19.73116947 266.32139635 -20.48443074 268.63605399 -21.26831055 270.94018555 C-21.5810868 271.86400764 -21.5810868 271.86400764 -21.90018177 272.80649281 C-22.55931942 274.75095053 -23.22287909 276.69386202 -23.88671875 278.63671875 C-24.29651978 279.84444946 -24.7063208 281.05218018 -25.12854004 282.29650879 C-26.64460593 286.76139226 -28.16638092 291.22433555 -29.6875 295.6875 C-33.090625 305.690625 -36.49375 315.69375 -40 326 C-65.74 326 -91.48 326 -118 326 C-114.62452528 314.74841759 -114.62452528 314.74841759 -112.77026367 309.59277344 C-112.35463669 308.43332718 -111.9390097 307.27388092 -111.51078796 306.07929993 C-111.06765762 304.8517247 -110.62452728 303.62414948 -110.16796875 302.359375 C-109.69506057 301.04374617 -109.22235315 299.72804516 -108.74983215 298.41227722 C-107.49279555 294.91442961 -106.23225583 291.4178548 -104.97076416 287.92161179 C-104.18149209 285.73334298 -103.39320032 283.54472347 -102.60522461 281.35598755 C-96.27229875 263.76609645 -89.9069486 246.18901655 -83.4152832 228.65698242 C-78.10920304 214.32552934 -72.86371816 199.97207294 -67.62447357 185.61608505 C-66.87524377 183.56316793 -66.12589444 181.51029446 -65.37652588 179.45742798 C-60.17828676 165.21621735 -54.98668121 150.9726286 -49.8125 136.72265625 C-49.40034241 135.58762161 -48.98818481 134.45258698 -48.5635376 133.28315735 C-46.10849915 126.52212809 -46.10849915 126.52212809 -43.65368652 119.76101685 C-36.76154758 100.7828305 -29.78823529 81.83521924 -22.79354858 62.8946228 C-15.06955702 41.97346879 -7.49563346 21.00424761 0 0 Z M34 88 C33.6189209 89.14847412 33.2378418 90.29694824 32.84521484 91.48022461 C25.82238882 112.63612318 18.77100673 133.78153627 11.5625 154.875 C11.27177612 155.72619415 10.98105225 156.57738831 10.68151855 157.45437622 C7.93194163 165.50046699 5.16994744 173.54159402 2.34765625 181.5625 C1.77325806 183.19662842 1.77325806 183.19662842 1.18725586 184.86376953 C0.50652328 186.79347663 -0.17847464 188.72168755 -0.86889648 190.64794922 C-1.30117554 191.87022217 -1.30117554 191.87022217 -1.7421875 193.1171875 C-1.9882373 193.80409668 -2.23428711 194.49100586 -2.48779297 195.19873047 C-3.1367578 197.16882056 -3.1367578 197.16882056 -3 200 C21.75 200 46.5 200 72 200 C68.41693204 188.90244228 64.82267533 177.8088725 61.21154785 166.72045898 C60.34366896 164.05534939 59.47607485 161.39014815 58.60876465 158.72485352 C55.69495991 149.77189237 52.7755382 140.82079234 49.84724808 131.87255764 C48.4703613 127.66474337 47.09560576 123.45625937 45.72583008 119.24612427 C44.41267046 115.21041512 43.09366948 111.1766611 41.77032852 107.14427948 C41.27496365 105.63143976 40.78170273 104.11790941 40.29061508 102.60367584 C39.61259366 100.51425451 38.92712866 98.4274215 38.23974609 96.34106445 C37.85402435 95.1602681 37.46830261 93.97947174 37.07089233 92.76289368 C36.17884737 89.90967065 36.17884737 89.90967065 34 88 Z " fill="#1E6AF5" transform="translate(1510,1466)"/>
<path d="M0 0 C1.80868813 0.00333092 1.80868813 0.00333092 3.65391541 0.00672913 C4.31730423 0.0065831 4.98069305 0.00643707 5.66418457 0.00628662 C7.86644207 0.00698571 10.06861596 0.01477787 12.27085876 0.02259827 C13.79400588 0.02446246 15.31715359 0.02588636 16.84030151 0.02688599 C20.85657903 0.03071105 24.87282059 0.04054124 28.88908386 0.05158997 C32.98443617 0.06180433 37.07979427 0.06638366 41.17515564 0.07142639 C49.21618779 0.08216352 57.25719069 0.0992398 65.29820251 0.12025452 C70.70928158 13.74576954 75.74621648 27.49511524 80.71299744 41.28800964 C82.79552821 47.07023117 84.88471093 52.8500464 86.97373962 58.62992287 C87.68979016 60.61119935 88.40562067 62.59255524 89.1214447 64.57391357 C93.6548723 77.119504 98.21889669 89.65384157 102.79820251 102.18275452 C103.37373367 103.7578479 103.37373367 103.7578479 103.96089172 105.36476135 C108.46115847 117.67727106 112.98084528 129.98250116 117.52085876 142.28041077 C117.95977448 143.46939468 118.39869019 144.6583786 118.85090637 145.88339233 C119.29113129 147.07587082 119.7313562 148.2683493 120.18492126 149.4969635 C121.07685931 151.91305646 121.96878639 154.32915347 122.86070251 156.74525452 C123.30220642 157.94111176 123.74371033 159.13696899 124.19859314 160.36906433 C130.68063243 177.93353421 137.06794293 195.52971783 143.38566589 213.15388489 C149.57954609 230.42584915 155.8845503 247.65565652 162.23570251 264.87025452 C162.68327911 266.08417877 163.13085571 267.29810303 163.59199524 268.54881287 C169.38007695 284.24698324 169.38007695 284.24698324 175.20730591 299.9306488 C176.27655589 302.79883237 177.34161359 305.66856063 178.40589905 308.53858948 C179.08445858 310.36222374 179.77016823 312.18319263 180.4561615 314.00404358 C181.03732727 315.57170471 181.03732727 315.57170471 181.63023376 317.17103577 C181.95741394 318.04413391 182.28459412 318.91723206 182.62168884 319.81678772 C183.29820251 322.12025452 183.29820251 322.12025452 183.29820251 326.12025452 C157.88820251 326.12025452 132.47820251 326.12025452 106.29820251 326.12025452 C101.79677841 314.86669425 101.79677841 314.86669425 99.91636658 309.41712952 C99.49623291 308.20307434 99.07609924 306.98901917 98.64323425 305.73817444 C98.19995378 304.44891761 97.75682158 303.15960979 97.31382751 301.87025452 C96.84884684 300.5216591 96.38373624 299.17310847 95.91850281 297.82460022 C94.95211081 295.02153558 93.98755133 292.21784894 93.02427673 289.41371155 C91.78841631 285.81668191 90.54746796 282.22143078 89.30513382 278.62663269 C88.34731566 275.85308504 87.39236417 273.07855704 86.43827057 270.3037262 C85.98148405 268.97649397 85.52375048 267.64958729 85.06505585 266.32301331 C84.42790873 264.47909952 83.79507532 262.63369686 83.16246033 260.78822327 C82.8014624 259.73916809 82.44046448 258.69011292 82.06852722 257.60926819 C81.29820251 255.12025452 81.29820251 255.12025452 81.29820251 253.12025452 C47.96820251 253.12025452 14.63820251 253.12025452 -19.70179749 253.12025452 C-20.36179749 256.09025452 -21.02179749 259.06025452 -21.70179749 262.12025452 C-22.13066195 263.60363024 -22.58410513 265.0807423 -23.08705139 266.54066467 C-23.34136932 267.28659882 -23.59568726 268.03253296 -23.85771179 268.80107117 C-24.1285257 269.5792923 -24.3993396 270.35751343 -24.67835999 271.15931702 C-24.96730133 272.00207184 -25.25624268 272.84482666 -25.55393982 273.71311951 C-26.47369253 276.39208251 -27.40013928 279.06867339 -28.32679749 281.74525452 C-28.92488998 283.48468791 -29.52254896 285.22427043 -30.11976624 286.96400452 C-34.61348033 300.02780404 -39.16325128 313.07193419 -43.70179749 326.12025452 C-69.44179749 326.12025452 -95.18179749 326.12025452 -121.70179749 326.12025452 C-119.7491594 319.6114609 -117.74821306 313.23647663 -115.42835999 306.86634827 C-114.95492409 305.55673126 -114.95492409 305.55673126 -114.47192383 304.22065735 C-113.42647493 301.33195313 -112.37676525 298.44481903 -111.32679749 295.55775452 C-110.57534251 293.48527068 -109.82396088 291.41276025 -109.07264709 289.34022522 C-102.75334401 271.92944631 -96.3416032 254.55292059 -89.92362976 237.17832947 C-83.32971229 219.32312897 -76.8283238 201.43711836 -70.40266418 183.52073669 C-64.60462524 167.35757488 -58.71987406 151.22828149 -52.78215027 135.11595154 C-46.44313607 117.91060293 -40.18351336 100.67720643 -33.95179749 83.43275452 C-27.93006125 66.77180804 -21.89460664 50.116606 -15.76429749 33.49525452 C-15.49065369 32.75304657 -15.21700989 32.01083862 -14.93507385 31.24613953 C-13.44477766 27.20627693 -11.94934866 23.1683619 -10.44868469 19.13233948 C-9.63954659 16.95255304 -8.83460233 14.7712368 -8.0294342 12.58998108 C-7.48158708 11.11303103 -6.93357764 9.63614117 -6.38539124 8.15931702 C-6.13088699 7.46744293 -5.87638275 6.77556885 -5.61416626 6.06272888 C-3.41249961 0.15188721 -3.41249961 0.15188721 0 0 Z M30.29820251 88.12025452 C30.07872955 88.78089401 29.85925659 89.44153351 29.63313293 90.12219238 C27.04502844 97.91144031 24.45448347 105.69987467 21.86220932 113.48773575 C21.40420434 114.8637438 20.94624963 116.23976858 20.4883461 117.61581039 C13.93232714 137.31651936 7.32627644 156.99792778 0.52622986 176.61610413 C0.00100102 178.13962267 -0.52422691 179.66314153 -1.04945374 181.18666077 C-1.39036293 182.16108627 -1.39036293 182.16108627 -1.73815918 183.15519714 C-3.67049474 188.77199649 -5.12692958 194.34573888 -6.70179749 200.12025452 C18.04820251 200.12025452 42.79820251 200.12025452 68.29820251 200.12025452 C60.39555487 174.85129477 52.24027998 149.67710624 43.89636612 124.55140305 C43.10894041 122.17744205 42.32384382 119.80272236 41.53938293 117.42778015 C40.29092468 113.649197 39.03629316 109.87271943 37.77684402 106.09778595 C37.30693312 104.68636713 36.8390298 103.27427821 36.37321091 101.8615036 C35.73121365 99.9160153 35.08096173 97.97325674 34.43028259 96.03065491 C33.88287163 94.38414696 33.88287163 94.38414696 33.32440186 92.70437622 C32.45189297 90.00980862 32.45189297 90.00980862 30.29820251 88.12025452 Z " fill="#FFFFFF" transform="translate(2312.7017974853516,1465.8797454833984)"/>
<path d="M0 0 C0.82242188 0.68707031 1.64484375 1.37414063 2.4921875 2.08203125 C12.97703742 11.14603703 24.50312321 23.50936964 29 37 C20.88333754 43.02918749 12.71053825 48.94751313 4.35791016 54.64599609 C-2.19281498 59.11722658 -8.68616009 63.66865735 -15.17456055 68.22973633 C-17.44638404 69.82465194 -19.72203107 71.41387825 -22 73 C-22.91410645 73.64219482 -22.91410645 73.64219482 -23.84667969 74.29736328 C-27.76722247 77 -27.76722247 77 -30 77 C-30.35191406 76.31035156 -30.70382813 75.62070313 -31.06640625 74.91015625 C-40.51700737 56.92193636 -53.99980724 45.28383924 -73 38 C-94.4629872 31.44413192 -119.80054502 31.41802086 -140 42 C-161.66936991 54.55870339 -175.38158351 73.5587729 -182.15625 97.4453125 C-189.24421007 127.30662577 -187.40621089 158.91258207 -171.9140625 185.97265625 C-160.32815591 204.29730443 -144.5697786 219.2904174 -122.97509766 224.48730469 C-100.18254117 229.52462066 -77.18182848 226.59160218 -56.7265625 214.85546875 C-44.79792163 206.73784065 -35.93489226 196.10052255 -30 183 C-24.91821045 184.78688941 -20.39818761 187.50744042 -15.75 190.1875 C-14.39007935 190.96794678 -14.39007935 190.96794678 -13.00268555 191.76416016 C-2.52775002 197.80435428 7.84428895 204.02158689 18.17333984 210.30761719 C20.07391093 211.44553037 21.99158164 212.55531221 23.92431641 213.63769531 C24.8322998 214.15170898 25.7402832 214.66572266 26.67578125 215.1953125 C27.48571533 215.64148926 28.29564941 216.08766602 29.13012695 216.54736328 C31 218 31 218 31.83789062 220.00170898 C32.56759031 228.99657631 20.58624989 241.37766049 15 248 C-8.50913625 274.53714664 -44.58025363 288.9156804 -79 294 C-79.63123779 294.0942627 -80.26247559 294.18852539 -80.9128418 294.28564453 C-88.38810417 295.26689888 -95.91078456 295.24259856 -103.4375 295.25 C-104.1486496 295.25100708 -104.85979919 295.25201416 -105.59249878 295.25305176 C-116.66786174 295.24245526 -127.20007366 294.56456797 -138 292 C-139.26972656 291.7215625 -140.53945312 291.443125 -141.84765625 291.15625 C-181.46253708 281.65195594 -216.07041795 253.49730662 -237.60180664 219.53125 C-260.48424714 181.98902245 -270.18068702 137.3823606 -261 94 C-260.75056641 92.81833252 -260.75056641 92.81833252 -260.49609375 91.61279297 C-257.7533295 79.14083444 -253.42596339 67.54245927 -248 56 C-247.65453125 55.26507324 -247.3090625 54.53014648 -246.953125 53.77294922 C-229.37737057 17.12127102 -196.2144915 -12.11300073 -157.97875977 -25.72827148 C-104.81506498 -43.83296095 -43.44382196 -36.66882078 0 0 Z " fill="#FFFFFF" transform="translate(4074,1499)"/>
<path d="M0 0 C27.06 0 54.12 0 82 0 C89.94914733 16.4660909 97.8615415 32.90744481 105.51953125 49.50390625 C109.46110491 58.02708034 113.48275059 66.51231137 117.5 75 C124.73890051 90.30034845 131.90178248 105.63377164 139 121 C139.57291331 122.2399104 140.14583007 123.47981922 140.71875 124.71972656 C144.14923856 132.14491423 147.57622806 139.5717127 151 147 C156.46607559 136.11713385 161.86564291 125.20411384 167.1875 114.25 C167.55438934 113.49543518 167.92127869 112.74087036 168.29928589 111.96343994 C173.69274717 100.86247913 178.9567264 89.71102662 184.1159668 78.49902344 C188.6210002 68.73916493 193.30501956 59.07211481 198.01895142 49.41186523 C203.43711908 38.30373238 208.70707301 27.13548995 213.83984375 15.89257812 C214.33097656 14.82201172 214.82210937 13.75144531 215.328125 12.6484375 C215.7499707 11.72208496 216.17181641 10.79573242 216.60644531 9.84130859 C218.25370313 6.48272652 220.14404696 3.24791782 222 0 C249.06 0 276.12 0 304 0 C302.46230682 4.61307953 300.78932871 8.58607017 298.5078125 12.8125 C297.99507027 13.77535416 297.99507027 13.77535416 297.4719696 14.75765991 C296.36092287 16.84094108 295.24313458 18.92051571 294.125 21 C293.34824989 22.4524755 292.5718039 23.90511368 291.7956543 25.35791016 C286.56614929 35.13451732 281.27669336 44.87801531 275.94921875 54.6015625 C272.64613907 60.63579869 269.38399623 66.69186866 266.125 72.75 C265.54097412 73.83555176 264.95694824 74.92110352 264.35522461 76.03955078 C262.56968157 79.35944905 260.78472918 82.67966415 259 86 C251.87977415 99.24657066 244.74739732 112.48544101 237.53417969 125.68164062 C231.30243662 137.09210616 225.15547172 148.54827181 219 160 C212.128407 172.78401053 205.2533501 185.56591577 198.3125 198.3125 C197.81927246 199.21967773 197.32604492 200.12685547 196.81787109 201.06152344 C196.35848145 201.90360352 195.8990918 202.74568359 195.42578125 203.61328125 C195.02786377 204.34329346 194.62994629 205.07330566 194.2199707 205.82543945 C193 208 193 208 191.45077515 209.95211792 C189.26438486 214.54542777 189.56068146 218.91381814 189.56762695 223.94067383 C189.5574353 225.04355743 189.54724365 226.14644104 189.53674316 227.28274536 C189.50657507 230.92422541 189.4973411 234.56544256 189.48828125 238.20703125 C189.47143745 240.73338193 189.45328762 243.25972421 189.43388367 245.78605652 C189.39120286 251.75347363 189.36168444 257.72081517 189.33856028 263.68832844 C189.31149102 270.48404279 189.26758066 277.27961589 189.22227156 284.07522929 C189.1294721 298.05007611 189.05776993 312.02496761 189 326 C179.23849012 326.02312446 169.4769867 326.04091561 159.71545506 326.05181217 C155.18325906 326.05704078 150.65108173 326.06413801 146.11889648 326.07543945 C141.7487717 326.08626914 137.37866492 326.09227701 133.00852776 326.09487724 C131.33749037 326.09673135 129.66645403 326.10035168 127.99542427 326.10573006 C125.66302449 326.11294159 123.33070007 326.1139909 120.99829102 326.11352539 C120.3005809 326.11712067 119.60287079 326.12071594 118.88401794 326.12442017 C114.11405216 326.11405216 114.11405216 326.11405216 113 325 C112.92484976 323.59462632 112.91968451 322.18543703 112.94271851 320.77824402 C112.95460709 319.86653442 112.96649567 318.95482483 112.97874451 318.01548767 C112.99655472 317.00643875 113.01436493 315.99738983 113.03271484 314.95776367 C113.06216739 312.76394049 113.09088945 310.57010742 113.11898804 308.37626648 C113.14302767 306.61737878 113.14302767 306.61737878 113.16755295 304.82295799 C113.25718478 297.27180502 113.27548238 289.72008646 113.30389977 282.16849804 C113.33275398 275.55671632 113.38782811 268.94716684 113.50390625 262.33618164 C114.97467332 222.10273042 114.97467332 222.10273042 98.81524658 186.49795532 C96.23473813 182.94692546 94.29664478 179.16916514 92.34375 175.25 C91.69934752 174.02644579 91.0515124 172.80469197 90.39990234 171.58496094 C90.0902655 171.00065308 89.78062866 170.41634521 89.46160889 169.81433105 C81.35434407 154.51781858 73.18533176 139.25487815 65 124 C56.75055141 108.62562829 48.5267493 93.23852344 40.35015869 77.82531738 C35.04956076 67.83532723 29.70973429 57.86744098 24.3347168 47.91723633 C21.00721008 41.74991195 17.70410809 35.57042214 14.421875 29.37890625 C14.03318237 28.64586273 13.64448975 27.91281921 13.24401855 27.15756226 C11.32948835 23.54579057 9.41722248 19.93284044 7.5078125 16.31835938 C6.8125372 15.00518863 6.11722647 13.69203666 5.421875 12.37890625 C4.80924805 11.2194751 4.19662109 10.06004395 3.56542969 8.86547852 C2.01376739 5.92544132 2.01376739 5.92544132 0 3 C0 2.01 0 1.02 0 0 Z " fill="#FFFFFF" transform="translate(2855,1466)"/>
<path d="M0 0 C90.42 0 180.84 0 274 0 C274 22.11 274 44.22 274 67 C241.33 67 208.66 67 175 67 C175 152.47 175 237.94 175 326 C150.25 326 125.5 326 100 326 C99 325 99 325 98.8758015 323.22149795 C98.87618122 322.43813491 98.87656094 321.65477187 98.87695217 320.84767056 C98.87496112 319.94696345 98.87297007 319.04625634 98.87091869 318.11825508 C98.87383153 317.11730326 98.87674437 316.11635144 98.87974548 315.08506775 C98.87889106 314.03065682 98.87803663 312.97624588 98.87715632 311.8898831 C98.87549837 308.32753218 98.88102801 304.7652275 98.88647461 301.20288086 C98.88675644 298.66089377 98.88659883 296.1189066 98.8860321 293.57691956 C98.88580378 288.08918091 98.88865529 282.60145738 98.89426994 277.11372185 C98.90238262 269.17929198 98.90499992 261.24486786 98.90625793 253.31043429 C98.90844882 240.43864239 98.9151099 227.56685682 98.92456055 214.69506836 C98.93373372 202.18823274 98.94081501 189.68139884 98.94506836 177.17456055 C98.94533108 176.40417841 98.94559381 175.63379628 98.94586449 174.84006923 C98.94716949 170.97544949 98.94843321 167.11082974 98.94967639 163.24620998 C98.96005015 131.16413438 98.97848906 99.08207054 99 67 C66.33 67 33.66 67 0 67 C0 44.89 0 22.78 0 0 Z " fill="#FFFFFF" transform="translate(3236,1466)"/>
<path d="M0 0 C24.75 0 49.5 0 75 0 C75 85.47 75 170.94 75 259 C127.14 259 179.28 259 233 259 C233 280.78 233 302.56 233 325 C231.10378258 326.89621742 228.32121773 326.12288201 225.79798222 326.12908077 C224.89845042 326.12616811 223.99891863 326.12325544 223.0721283 326.12025452 C221.65321793 326.12153854 221.65321793 326.12153854 220.2056427 326.12284851 C217.00027633 326.12451432 213.79496127 326.11896293 210.58959961 326.11352539 C208.26662224 326.11321931 205.94364478 326.11335211 203.62066746 326.11389065 C197.37610415 326.11411725 191.13155984 326.10830376 184.88700104 326.10128021 C179.03636106 326.09560298 173.18572579 326.09531806 167.33508301 326.09460449 C150.2025528 326.08934837 133.07002616 326.07538734 115.9375 326.0625 C77.678125 326.041875 39.41875 326.02125 0 326 C0 218.42 0 110.84 0 0 Z " fill="#FFFFFF" transform="translate(2601,1466)"/>
<path d="M0 0 C25.08 0 50.16 0 76 0 C76 107.58 76 215.16 76 326 C50.92 326 25.84 326 0 326 C0 218.42 0 110.84 0 0 Z " fill="#FFFFFF" transform="translate(792,1466)"/>
<path d="M0 0 C24.75 0 49.5 0 75 0 C75 107.58 75 215.16 75 326 C50.25 326 25.5 326 0 326 C0 218.42 0 110.84 0 0 Z " fill="#FFFFFF" transform="translate(3619,1466)"/>
<path d="M0 0 C8.25 0 16.5 0 25 0 C41.34042553 46.82978723 41.34042553 46.82978723 48 66 C49.15268129 63.10684629 50.29590743 60.21004513 51.4375 57.3125 C51.76298828 56.49587891 52.08847656 55.67925781 52.42382812 54.83789062 C52.73642578 54.04189453 53.04902344 53.24589844 53.37109375 52.42578125 C53.65911865 51.69786377 53.94714355 50.96994629 54.24389648 50.2199707 C54.49341064 49.48738037 54.7429248 48.75479004 55 48 C55.26425781 47.28255615 55.52851562 46.5651123 55.80078125 45.82592773 C56.11914987 41.30985326 54.38564265 37.54890543 52.81640625 33.359375 C52.48205063 32.43658752 52.14769501 31.51380005 51.8032074 30.56304932 C50.73453974 27.6209943 49.64902048 24.68550304 48.5625 21.75 C47.48330924 18.79894916 46.40752526 15.84667602 45.33250427 12.894104 C44.6624532 11.05775493 43.98923384 9.22255837 43.31263733 7.38861084 C43.00909836 6.56395325 42.70555939 5.73929565 42.39282227 4.88964844 C42.12333267 4.16082458 41.85384308 3.43200073 41.57618713 2.68109131 C41 1 41 1 41 0 C47.93 0 54.86 0 62 0 C65.58819202 8.50534404 68.32859852 17.17561643 71 26 C72.87790282 23.18314577 73.70981475 21.12422281 74.69140625 17.9296875 C74.99626953 16.95128906 75.30113281 15.97289062 75.61523438 14.96484375 C75.92783203 13.94519531 76.24042969 12.92554688 76.5625 11.875 C77.18604218 9.85071031 77.81220221 7.82722449 78.44140625 5.8046875 C78.71670166 4.90733887 78.99199707 4.00999023 79.27563477 3.08544922 C80 1 80 1 81 0 C82.56172745 -0.08685603 84.12729344 -0.10702219 85.69140625 -0.09765625 C86.63564453 -0.09443359 87.57988281 -0.09121094 88.55273438 -0.08789062 C89.54595703 -0.07951172 90.53917969 -0.07113281 91.5625 -0.0625 C92.55958984 -0.05798828 93.55667969 -0.05347656 94.58398438 -0.04882812 C97.05604849 -0.03700007 99.52799518 -0.02051849 102 0 C101.00586029 3.04361146 100.00416175 6.08468084 99 9.125 C98.69255859 10.05828125 98.38511719 10.9915625 98.06835938 11.953125 C96.37467309 17.04436634 94.61287511 22.09678957 92.71875 27.1171875 C92.16380859 28.59421143 92.16380859 28.59421143 91.59765625 30.10107422 C90.87665392 32.00525163 90.14518473 33.90550498 89.40234375 35.80126953 C89.07363281 36.67122559 88.74492188 37.54118164 88.40625 38.4375 C87.96249023 39.58025391 87.96249023 39.58025391 87.50976562 40.74609375 C86.60931329 44.72740407 87.95188705 48.1796202 89.41015625 51.8828125 C89.67763672 52.57503906 89.94511719 53.26726562 90.22070312 53.98046875 C90.78507986 55.4182545 91.35019232 56.85575166 91.91601562 58.29296875 C93.08978898 61.33397961 94 63.70998752 94 67 C94.66 67 95.32 67 96 67 C96.24097412 65.7843335 96.48194824 64.56866699 96.73022461 63.31616211 C98.12949097 57.03770479 100.23122222 51.0195181 102.31640625 44.94140625 C102.73292953 43.71590561 103.14945282 42.49040497 103.57859802 41.22776794 C104.45406625 38.65256409 105.33257766 36.07842796 106.21362305 33.50512695 C107.34324617 30.20568096 108.46740896 26.90440808 109.58961582 23.6024332 C110.66332824 20.44394749 111.73981461 17.28641182 112.81640625 14.12890625 C113.42265587 12.34934288 113.42265587 12.34934288 114.04115295 10.53382874 C114.41501633 9.44186691 114.7888797 8.34990509 115.17407227 7.22485352 C115.5033522 6.2616066 115.83263214 5.29835968 116.17189026 4.30592346 C117 2 117 2 118 0 C126.25 0 134.5 0 143 0 C138.69301652 11.58719627 134.23401612 23.10261478 129.66796875 34.58984375 C128.98385381 36.31333642 128.29979837 38.03685271 127.61579895 39.76039124 C126.1974821 43.3331149 124.77797072 46.90536108 123.35766602 50.47729492 C121.53455441 55.0627436 119.7152854 59.64970655 117.89695263 64.23705196 C116.492738 67.77806765 115.08616147 71.31814144 113.67888832 74.85794258 C113.0062276 76.55097413 112.33439883 78.24433646 111.66341209 79.93803215 C110.7327404 82.28641698 109.79881509 84.6334812 108.86401367 86.98022461 C108.58716232 87.68085022 108.31031097 88.38147583 108.02507019 89.10333252 C106.11418874 93.88581126 106.11418874 93.88581126 105 95 C103.58429877 95.08651611 102.164405 95.10704904 100.74609375 95.09765625 C99.89208984 95.09443359 99.03808594 95.09121094 98.15820312 95.08789062 C96.81145508 95.07532227 96.81145508 95.07532227 95.4375 95.0625 C94.53580078 95.05798828 93.63410156 95.05347656 92.70507812 95.04882812 C90.46998686 95.03700225 88.23502563 95.0205222 86 95 C82.0317526 86.57473459 78.50990821 77.99410845 75.03540039 69.35498047 C74.65762451 68.42057129 74.27984863 67.48616211 73.890625 66.5234375 C73.55063477 65.67700684 73.21064453 64.83057617 72.86035156 63.95849609 C72.15730147 62.03630173 72.15730147 62.03630173 71 61 C70.61142822 61.99443115 70.22285645 62.9888623 69.82250977 64.01342773 C68.38456018 67.69138654 66.94317589 71.36799102 65.50073242 75.04418945 C64.87609089 76.63756986 64.2523902 78.23131942 63.62963867 79.82543945 C62.73601526 82.11246134 61.83905237 84.39814828 60.94140625 86.68359375 C60.6622084 87.40026718 60.38301056 88.11694061 60.09535217 88.85533142 C58.11387171 93.88612829 58.11387171 93.88612829 57 95 C55.58429877 95.08651611 54.164405 95.10704904 52.74609375 95.09765625 C51.89208984 95.09443359 51.03808594 95.09121094 50.15820312 95.08789062 C49.26037109 95.07951172 48.36253906 95.07113281 47.4375 95.0625 C46.53580078 95.05798828 45.63410156 95.05347656 44.70507812 95.04882812 C42.46998366 95.03700223 40.23503507 95.01968245 38 95 C34.96309291 89.13308387 32.38594571 83.20457055 29.98046875 77.0546875 C29.60455597 76.1023674 29.22864319 75.1500473 28.84133911 74.16886902 C27.61992898 71.07226458 26.40363787 67.97367837 25.1875 64.875 C24.34366883 62.73221219 23.49950879 60.58955387 22.6550293 58.44702148 C20.93860661 54.0911461 19.22406093 49.73453854 17.51074219 45.37744141 C15.15415744 39.38738242 12.78604008 33.40194615 10.4140625 27.41796875 C9.37592617 24.79701681 8.33792451 22.17601158 7.29995728 19.55499268 C6.64248787 17.89543969 5.98459097 16.23605601 5.32626343 14.57684326 C4.42033109 12.29274555 3.51652661 10.00781758 2.61328125 7.72265625 C2.34548859 7.04897507 2.07769592 6.37529388 1.80178833 5.68119812 C0 1.11412157 0 1.11412157 0 0 Z " fill="#858E9B" transform="translate(1748,1873)"/>
<path d="M0 0 C18 0 18 0 22.5 3.6875 C23.70805699 5.43035975 24.87203831 7.20426499 26 9 C27.54736727 11.03244388 29.11108229 13.05250477 30.6875 15.0625 C31.53741762 16.17895788 32.38634586 17.29616951 33.234375 18.4140625 C36.69537504 22.93747402 40.30352718 27.33994119 43.91870117 31.74047852 C49.38666247 38.41570927 54.66349822 45.20808865 60 52 C60.33 34.84 60.66 17.68 61 0 C68.59 0 76.18 0 84 0 C84 31.35 84 62.7 84 95 C65 95 65 95 60.5390625 91.84375 C59.01293945 89.76879883 59.01293945 89.76879883 57.625 87.5 C56.50749634 85.93028722 55.38898224 84.36129337 54.26953125 82.79296875 C53.73021973 81.99165527 53.1909082 81.1903418 52.63525391 80.36474609 C50.07788923 76.66653256 47.19228968 73.26109498 44.3125 69.8125 C37.3964127 61.32591079 30.56893162 52.75857549 24 44 C23.67 60.83 23.34 77.66 23 95 C15.41 95 7.82 95 0 95 C0 63.65 0 32.3 0 0 Z " fill="#409AEB" transform="translate(145,1873)"/>
<path d="M0 0 C18 0 18 0 22.5 3.6875 C23.70805699 5.43035975 24.87203831 7.20426499 26 9 C27.54736727 11.03244388 29.11108229 13.05250477 30.6875 15.0625 C31.53741762 16.17895788 32.38634586 17.29616951 33.234375 18.4140625 C36.69537504 22.93747402 40.30352718 27.33994119 43.91870117 31.74047852 C49.38666247 38.41570927 54.66349822 45.20808865 60 52 C60.33 34.84 60.66 17.68 61 0 C68.59 0 76.18 0 84 0 C84 31.35 84 62.7 84 95 C65 95 65 95 60.36328125 91.6328125 C58.75952148 89.46459961 58.75952148 89.46459961 57.3125 87.125 C56.75183838 86.34068604 56.19117676 85.55637207 55.61352539 84.74829102 C54.51433164 83.20667856 53.4383581 81.64816686 52.38964844 80.07177734 C50.71157747 77.57000113 48.86015295 75.25505469 46.9375 72.9375 C46.34066406 72.18597656 45.74382813 71.43445312 45.12890625 70.66015625 C43.3768888 68.47093812 41.61260864 66.29347221 39.83984375 64.12109375 C39.26951416 63.42185791 38.69918457 62.72262207 38.11157227 62.00219727 C36.98966279 60.6279252 35.86653777 59.25464416 34.74194336 57.88256836 C34.21608643 57.23811768 33.69022949 56.59366699 33.1484375 55.9296875 C32.68614746 55.36491699 32.22385742 54.80014648 31.74755859 54.21826172 C29.10237839 50.86060493 26.56466401 47.41955201 24 44 C23.67 60.83 23.34 77.66 23 95 C15.41 95 7.82 95 0 95 C0 63.65 0 32.3 0 0 Z " fill="#CD8145" transform="translate(3515,1873)"/>
<path d="M0 0 C5.94 0 11.88 0 18 0 C24.47506209 6.68393506 24.47506209 6.68393506 26.359375 9.87109375 C29.08282608 14.24420775 32.26083952 18.11705638 35.5625 22.0625 C40.34712937 27.9069399 45.00907288 33.83169814 49.5859375 39.83984375 C52.69774347 43.9133891 55.85286663 47.95368567 59 52 C59.33 34.84 59.66 17.68 60 0 C67.59 0 75.18 0 83 0 C83 31.35 83 62.7 83 95 C76.73 95 70.46 95 64 95 C57.53275487 88.39367433 57.53275487 88.39367433 55.6796875 85.20703125 C52.79555382 80.53270764 49.35343828 76.43699275 45.8125 72.25 C44.6166065 70.80754872 43.42253808 69.363582 42.23046875 67.91796875 C41.67278809 67.2429834 41.11510742 66.56799805 40.54052734 65.87255859 C37.3145125 61.95123785 34.15872242 57.97563338 31 54 C28.36 50.7 25.72 47.4 23 44 C22.67 60.83 22.34 77.66 22 95 C14.74 95 7.48 95 0 95 C0 63.65 0 32.3 0 0 Z " fill="#B9845D" transform="translate(3039,1873)"/>
<path d="M0 0 C57.23256641 0 57.23256641 0 71.85546875 13.49609375 C82.03632967 25.38303701 83.90891701 39.67695452 83.1953125 54.69238281 C82.23950953 65.98519489 76.94919836 76.52451729 68.8125 84.3125 C49.47334151 100.42846541 23.8510206 95 0 95 C0 63.65 0 32.3 0 0 Z M23 20 C23 38.15 23 56.3 23 75 C38.86182458 76.17280621 38.86182458 76.17280621 52 70 C58.95326496 62.03668181 60.46307246 54.15412585 60.3203125 43.7734375 C59.71540692 36.64735465 57.19674954 30.04827098 52 25 C42.37122875 18.37035422 35.75513741 20 23 20 Z " fill="#A78872" transform="translate(2618,1873)"/>
<path d="M0 0 C7.87875 -0.0825 15.7575 -0.165 23.875 -0.25 C26.34210449 -0.28641602 28.80920898 -0.32283203 31.35107422 -0.36035156 C33.33560316 -0.37204851 35.32014181 -0.38223794 37.3046875 -0.390625 C38.81494507 -0.4213208 38.81494507 -0.4213208 40.35571289 -0.45263672 C50.52516276 -0.45758415 58.56714187 2.55606796 65.953125 9.6015625 C71.88435742 16.55151805 75.39732971 24.81726898 75 34 C73.99759688 43.81457382 70.60789818 50.88135724 63.5859375 57.75 C62 59 62 59 60 59 C64.88662853 68.10494207 70.06902376 77.01747893 75.31640625 85.91796875 C75.92097656 86.94792969 76.52554688 87.97789063 77.1484375 89.0390625 C77.69677246 89.96928223 78.24510742 90.89950195 78.81005859 91.85791016 C80 94 80 94 80 95 C71.43822551 96.79707411 62.33057182 98.26921931 54 95 C46.11908676 87.61935689 41.05677918 76.88570308 37 67 C37 66.34 37 65.68 37 65 C32.38 65 27.76 65 23 65 C23 74.9 23 84.8 23 95 C15.41 95 7.82 95 0 95 C0 63.65 0 32.3 0 0 Z M23 20 C23 28.25 23 36.5 23 45 C26.526875 45.103125 30.05375 45.20625 33.6875 45.3125 C34.79053467 45.35802002 35.89356934 45.40354004 37.0300293 45.45043945 C43.02765089 45.55875198 43.02765089 45.55875198 48.14453125 42.60546875 C51.7008567 37.61163912 51.78107555 33.02786563 51 27 C49.35551311 23.82147684 47.24396473 21.62198236 44 20 C42.40552536 19.91599471 40.80759455 19.89272533 39.2109375 19.90234375 C38.36321777 19.90484131 37.51549805 19.90733887 36.64208984 19.90991211 C35.5639502 19.91901611 34.48581055 19.92812012 33.375 19.9375 C28.239375 19.9684375 28.239375 19.9684375 23 20 Z " fill="#AD876B" transform="translate(2758,1873)"/>
<path d="M0 0 C7.899375 -0.0825 15.79875 -0.165 23.9375 -0.25 C27.65181274 -0.30462402 27.65181274 -0.30462402 31.44116211 -0.36035156 C33.42821387 -0.37204614 35.41527529 -0.38223614 37.40234375 -0.390625 C38.92027527 -0.4213208 38.92027527 -0.4213208 40.46887207 -0.45263672 C50.36712978 -0.45745163 58.90224459 2.9769578 66 10 C72.73907807 19.17470938 75.03298809 27.67635844 74 39 C72.28237607 46.91958341 68.71900474 52.37387933 63 58 C62.43410156 58.5671875 61.86820313 59.134375 61.28515625 59.71875 C60.86105469 60.1415625 60.43695312 60.564375 60 61 C60.53367187 61.88558594 61.06734375 62.77117187 61.6171875 63.68359375 C63.63121758 67.0296519 65.63867941 70.37960263 67.64306641 73.73144531 C68.5636216 75.27045194 69.48520527 76.80884376 70.40771484 78.34667969 C71.79724179 80.66591081 73.1805625 82.98874042 74.5625 85.3125 C75.00384277 86.04718506 75.44518555 86.78187012 75.89990234 87.53881836 C79 92.7715418 79 92.7715418 79 95 C57.77543727 97.52269088 57.77543727 97.52269088 51.96337891 93.63916016 C48.16827871 89.41883865 46.14141056 84.18862385 44 79 C42.81936995 76.4644681 41.53087813 74.01457604 40.1875 71.5625 C39.68605469 70.51191406 39.18460938 69.46132812 38.66796875 68.37890625 C34.9720583 64.59948082 34.9720583 64.59948082 23 65 C23 74.9 23 84.8 23 95 C15.41 95 7.82 95 0 95 C0 63.65 0 32.3 0 0 Z M23 20 C23 28.25 23 36.5 23 45 C28.011875 45.1546875 28.011875 45.1546875 33.125 45.3125 C34.16672363 45.35802002 35.20844727 45.40354004 36.28173828 45.45043945 C40.74786355 45.5170147 44.02789942 45.52888665 47.6171875 42.66796875 C51.15575097 38.70593785 51.33884102 35.38306464 51.2890625 30.2890625 C50.84466358 26.76990349 49.26573627 24.6541482 47 22 C43.74610012 19.83073341 42.86604043 19.75919951 39.11328125 19.8046875 C37.845448 19.81218018 37.845448 19.81218018 36.55200195 19.81982422 C34.94844849 19.84713623 34.94844849 19.84713623 33.3125 19.875 C28.2078125 19.936875 28.2078125 19.936875 23 20 Z " fill="#908C8D" transform="translate(2068,1873)"/>
<path d="M0 0 C9.17546071 10.19887748 14.48644001 23.11858523 14.24609375 36.8984375 C12.93909826 51.2516243 7.44816064 62.40351733 -2.96875 72.2578125 C-14.19527435 81.41991469 -26.7108409 84.30684001 -40.96875 83.2578125 C-49.41239074 81.60312367 -56.17739278 78.47311635 -62.96875 73.2578125 C-63.835 72.6803125 -64.70125 72.1028125 -65.59375 71.5078125 C-74.4252373 63.14114032 -80.33405527 51.08110968 -81.20703125 38.9453125 C-81.51661667 23.56380529 -77.24570418 10.8589459 -66.65625 -0.5546875 C-47.66485176 -18.27149526 -18.6917559 -17.81134711 0 0 Z M-51.21875 14.3203125 C-56.45538703 21.03064793 -58.72124216 29.04823164 -58.34765625 37.49609375 C-57.1366269 46.3228747 -53.61550162 53.31225665 -46.96875 59.2578125 C-41.54894482 62.99145607 -35.02482774 63.93822945 -28.5703125 62.85546875 C-22.32203233 61.05349034 -17.38313638 57.83412232 -13.71875 52.40625 C-9.18940838 44.04695038 -8.10529248 35.56169393 -9.96875 26.2578125 C-12.61577766 18.15364249 -16.56744849 12.66709851 -23.96875 8.2578125 C-33.95698103 4.92840216 -43.9407726 6.80756163 -51.21875 14.3203125 Z " fill="#B38564" transform="translate(2967.96875,1885.7421875)"/>
<path d="M0 0 C9.6532442 9.76835955 14.89679668 22.46036102 15.03125 36.19140625 C14.38819848 49.80802225 9.07985186 63.02033397 -1.0390625 72.41015625 C-11.34111428 80.76261656 -23.24622093 84.82548762 -36.51171875 84.3828125 C-46.29357073 83.30932818 -54.24509442 79.95524395 -62 74 C-62.86625 73.4225 -63.7325 72.845 -64.625 72.25 C-73.4564873 63.88332782 -79.36530527 51.82329718 -80.23828125 39.6875 C-80.53925659 24.73377805 -76.623954 11.81415659 -66.25 0.75 C-47.15210232 -17.25658924 -19.56850446 -17.16327098 0 0 Z M-50.25 15.0625 C-56.17693527 22.65739793 -58.07066893 31.55615099 -57 41 C-55.771735 49.57172171 -51.5621723 55.44096232 -45 61 C-38.7973069 64.73921215 -31.90551147 64.64465584 -25 63 C-17.63491805 60.0412688 -12.92679818 54.22060555 -9.6875 47.125 C-7.31748052 36.35218417 -7.62658474 26.74058745 -13.3671875 17.046875 C-16.69266694 12.87809216 -21.28779207 10.35610397 -26 8 C-35.85278848 7.14869675 -43.21087415 7.79630557 -50.25 15.0625 Z " fill="#7E8FA2" transform="translate(1690,1885)"/>
<path d="M0 0 C10.55595939 12.57149856 14.36327135 25.6179659 13.22314453 41.92285156 C11.90640154 54.17979839 4.89129591 65.42960988 -4.4765625 73.21484375 C-15.96849635 81.34458643 -27.0674654 84.17592974 -41 83 C-54.08632999 80.49378772 -65.26409872 73.93521276 -73 63 C-78.44777938 53.80308069 -81.39791931 45.29753267 -81.3125 34.625 C-81.30686035 33.88040527 -81.3012207 33.13581055 -81.29541016 32.36865234 C-81.16630341 26.49493463 -80.39621294 21.41197904 -78 16 C-77.41412109 14.66582031 -77.41412109 14.66582031 -76.81640625 13.3046875 C-70.63035189 0.72228798 -61.03628981 -7.0792998 -48 -12 C-30.63827957 -17.01699595 -13.14865956 -12.04552439 0 0 Z M-53.5234375 16.81640625 C-58.67934354 24.4411456 -58.91640107 33.02945179 -58 42 C-56.28003923 48.88909019 -53.19524897 55.08115787 -47.25390625 59.21484375 C-41.43627164 62.50408987 -35.1835112 63.76125083 -28.57421875 62.55859375 C-21.49170499 60.47550147 -16.88738238 56.85695405 -13.1875 50.4375 C-8.90320239 42.43737145 -8.72479532 32.82292259 -10.6484375 24.0390625 C-13.27087887 16.75450313 -17.62998436 12.04844088 -24.1875 8.0625 C-36.22756738 4.70707139 -45.70482852 7.08777179 -53.5234375 16.81640625 Z " fill="#998A83" transform="translate(2354,1886)"/>
<path d="M0 0 C7.59 0 15.18 0 23 0 C23 12.21 23 24.42 23 37 C35.21 37 47.42 37 60 37 C60 24.79 60 12.58 60 0 C67.26 0 74.52 0 82 0 C82 31.35 82 62.7 82 95 C74.74 95 67.48 95 60 95 C60 82.46 60 69.92 60 57 C47.79 57 35.58 57 23 57 C23 69.54 23 82.08 23 95 C15.41 95 7.82 95 0 95 C0 63.65 0 32.3 0 0 Z " fill="#6A93BA" transform="translate(1142,1873)"/>
<path d="M0 0 C7.59 0 15.18 0 23 0 C23 12.21 23 24.42 23 37 C35.21 37 47.42 37 60 37 C60 24.79 60 12.58 60 0 C67.26 0 74.52 0 82 0 C82 31.35 82 62.7 82 95 C74.74 95 67.48 95 60 95 C60 82.46 60 69.92 60 57 C47.79 57 35.58 57 23 57 C23 69.54 23 82.08 23 95 C15.41 95 7.82 95 0 95 C0 63.65 0 32.3 0 0 Z " fill="#5B95CB" transform="translate(798,1873)"/>
<path d="M0 0 C21.78 0 43.56 0 66 0 C66 6.6 66 13.2 66 20 C51.81 20 37.62 20 23 20 C23 25.61 23 31.22 23 37 C35.21 37 47.42 37 60 37 C60 43.27 60 49.54 60 56 C47.79 56 35.58 56 23 56 C23 62.27 23 68.54 23 75 C37.85 75 52.7 75 68 75 C68 81.6 68 88.2 68 95 C45.56 95 23.12 95 0 95 C0 63.65 0 32.3 0 0 Z " fill="#BF8356" transform="translate(3184,1873)"/>
<path d="M0 0 C21.78 0 43.56 0 66 0 C66 6.6 66 13.2 66 20 C51.81 20 37.62 20 23 20 C23 25.61 23 31.22 23 37 C35.21 37 47.42 37 60 37 C60 43.27 60 49.54 60 56 C47.79 56 35.58 56 23 56 C23 62.27 23 68.54 23 75 C37.52 75 52.04 75 67 75 C67 81.6 67 88.2 67 95 C44.89 95 22.78 95 0 95 C0 63.65 0 32.3 0 0 Z " fill="#8B8D94" transform="translate(1943,1873)"/>
<path d="M0 0 C21.78 0 43.56 0 66 0 C66 6.6 66 13.2 66 20 C51.81 20 37.62 20 23 20 C23 25.61 23 31.22 23 37 C35.21 37 47.42 37 60 37 C60 43.27 60 49.54 60 56 C47.79 56 35.58 56 23 56 C23 62.27 23 68.54 23 75 C37.52 75 52.04 75 67 75 C67 81.6 67 88.2 67 95 C44.89 95 22.78 95 0 95 C0 63.65 0 32.3 0 0 Z " fill="#4B98DE" transform="translate(414,1873)"/>
<path d="M0 0 C7.26 0 14.52 0 22 0 C22.01981934 1.58868896 22.03963867 3.17737793 22.06005859 4.81420898 C22.13640444 10.73526261 22.22507681 16.65607975 22.31738281 22.5769043 C22.35555308 25.13447382 22.39042633 27.69209485 22.421875 30.24975586 C22.46778545 33.93622177 22.52573723 37.6223368 22.5859375 41.30859375 C22.59748871 42.44332626 22.60903992 43.57805878 22.62094116 44.74717712 C22.80206247 54.59588934 23.66766857 63.13087469 30 71 C34.19300245 74.71380217 39.55236203 75.1699731 45 75 C47.61268401 74.27993066 49.5777534 73.2852737 52 72 C52.99 71.67 53.98 71.34 55 71 C56.15399052 69.16907204 56.15399052 69.16907204 57 67 C57.27507889 66.37879776 57.55015778 65.75759552 57.83357239 65.11756897 C60.40828613 58.27037511 60.47379909 51.68664759 60.51171875 44.43359375 C60.52966995 43.15895767 60.54762115 41.88432159 60.56611633 40.57106018 C60.61087034 37.21244931 60.64329568 33.85419521 60.66955566 30.49542236 C60.69954564 27.0560616 60.74601162 23.61692565 60.79101562 20.17773438 C60.87572469 13.45190732 60.94263645 6.72611361 61 0 C68.59 0 76.18 0 84 0 C84.0682562 7.33771697 84.12308944 14.67525532 84.15543652 22.0132246 C84.17097531 25.42194264 84.19199233 28.83042894 84.22631836 32.23901367 C84.26568584 36.1736354 84.27980648 40.10816913 84.29296875 44.04296875 C84.30845261 45.24455124 84.32393646 46.44613373 84.33988953 47.68412781 C84.34247944 60.94521659 82.08939295 74.20166775 72.890625 84.3203125 C62.70466091 93.83892032 51.83036153 96.69175942 38.11328125 96.3125 C26.09672804 95.63914656 17.32764905 90.75935121 9.25 82.1875 C0.55916024 71.79412671 -0.29934111 59.90567464 -0.1953125 46.875 C-0.1915756 45.51880096 -0.18873183 44.1625992 -0.18673706 42.80639648 C-0.1791538 39.26198685 -0.15955195 35.71774492 -0.1373291 32.17340088 C-0.11675534 28.54661323 -0.10771085 24.91979811 -0.09765625 21.29296875 C-0.07630019 14.19523792 -0.0411623 7.09764766 0 0 Z " fill="#3A9BF2" transform="translate(0,1873)"/>
<path d="M0 0 C21.78 0 43.56 0 66 0 C66 6.6 66 13.2 66 20 C51.48 20 36.96 20 22 20 C22 25.61 22 31.22 22 37 C25.98900391 36.98259766 25.98900391 36.98259766 30.05859375 36.96484375 C32.62345256 36.95705348 35.18831007 36.95097655 37.75317383 36.94506836 C39.54094021 36.94002782 41.32870245 36.93319546 43.11645508 36.92456055 C45.68051168 36.9124827 48.24451397 36.90676906 50.80859375 36.90234375 C51.6127623 36.89718246 52.41693085 36.89202118 53.24546814 36.88670349 C55.16401715 36.88650785 57.08245368 36.93798017 59 37 C63.48454135 41.48454135 60 49.6579008 60 56 C47.46 56 34.92 56 22 56 C22 62.27 22 68.54 22 75 C36.85 75 51.7 75 67 75 C67 81.6 67 88.2 67 95 C44.89 95 22.78 95 0 95 C0 63.65 0 32.3 0 0 Z " fill="#6F92B3" transform="translate(1287,1873)"/>
<path d="M0 0 C-0.57665391 4.7871428 -2.64082996 8.25128824 -5.0625 12.3125 C-5.43955078 12.95767578 -5.81660156 13.60285156 -6.20507812 14.26757812 C-7.13037493 15.84878152 -8.06432681 17.4249146 -9 19 C-11.67976019 17.93305844 -14.35226922 16.85352536 -17.015625 15.74609375 C-26.10354745 12.06921691 -33.57246432 9.34442494 -43 13 C-45.37221208 14.92768218 -45.37221208 14.92768218 -45.1875 18.375 C-44.42685565 21.98641677 -44.42685565 21.98641677 -42.24707031 23.12573242 C-36.76015707 25.38112991 -31.25053991 27.25889107 -25.5625 28.9375 C-5.22645549 35.21809692 -5.22645549 35.21809692 1 45 C4.07223534 52.42885 4.41486404 61.75779276 1.875 69.4375 C-2.2890103 78.35494672 -9.02050901 82.39853524 -18 86 C-36.76329713 91.28318093 -56.66417715 85.08680146 -73 76 C-72.40440894 71.13127946 -70.27522585 67.40671159 -67.9375 63.1875 C-67.56044922 62.49462891 -67.18339844 61.80175781 -66.79492188 61.08789062 C-65.86916148 59.38871015 -64.93537688 57.69390575 -64 56 C-60.98536933 57.1694688 -58.1035464 58.41926698 -55.25 59.9375 C-46.24401315 64.43210796 -35.61260996 67.92519024 -25.60546875 65.01171875 C-24.74566406 64.67785156 -23.88585937 64.34398437 -23 64 C-22.14349347 61.19954954 -22.14349347 61.19954954 -22 58 C-24.98279398 54.06540995 -28.2445029 52.97710218 -32.875 51.5625 C-34.2190628 51.13640209 -35.56280572 50.70929404 -36.90625 50.28125 C-37.586875 50.06855469 -38.2675 49.85585937 -38.96875 49.63671875 C-62.53325123 42.25015394 -62.53325123 42.25015394 -68 32 C-70.47023705 24.58928885 -70.27831116 14.53535453 -66.9375 7.4375 C-61.66527921 -1.37421733 -54.64974057 -6.65891267 -44.75 -9.25 C-28.80475369 -12.23803594 -13.8146863 -7.84925358 0 0 Z " fill="#5697D2" transform="translate(738,1882)"/>
<path d="M0 0 C-0.61262631 2.82080379 -1.47154809 5.13808856 -2.84765625 7.671875 C-3.38422852 8.66767578 -3.38422852 8.66767578 -3.93164062 9.68359375 C-4.30482422 10.36550781 -4.67800781 11.04742188 -5.0625 11.75 C-5.43955078 12.44738281 -5.81660156 13.14476562 -6.20507812 13.86328125 C-7.13273388 15.57768302 -8.06583454 17.28913661 -9 19 C-11.67976019 17.93305844 -14.35226922 16.85352536 -17.015625 15.74609375 C-26.10354745 12.06921691 -33.57246432 9.34442494 -43 13 C-45.37221208 14.92768218 -45.37221208 14.92768218 -45.1875 18.375 C-44.42685565 21.98641677 -44.42685565 21.98641677 -42.24707031 23.12573242 C-36.76015707 25.38112991 -31.25053991 27.25889107 -25.5625 28.9375 C-5.22645549 35.21809692 -5.22645549 35.21809692 1 45 C4.07223534 52.42885 4.41486404 61.75779276 1.875 69.4375 C-1.62147363 77.01319286 -7.34318405 81.8548156 -15 85 C-34.01866428 90.72972444 -53.37957621 86.48585014 -70.5 77.390625 C-71.325 76.93171875 -72.15 76.4728125 -73 76 C-72.40440894 71.13127946 -70.27522585 67.40671159 -67.9375 63.1875 C-67.56044922 62.49462891 -67.18339844 61.80175781 -66.79492188 61.08789062 C-65.86916148 59.38871015 -64.93537688 57.69390575 -64 56 C-60.98536933 57.1694688 -58.1035464 58.41926698 -55.25 59.9375 C-46.24401315 64.43210796 -35.61260996 67.92519024 -25.60546875 65.01171875 C-24.74566406 64.67785156 -23.88585938 64.34398437 -23 64 C-22.14349347 61.19954954 -22.14349347 61.19954954 -22 58 C-24.98279398 54.06540995 -28.2445029 52.97710218 -32.875 51.5625 C-34.2190628 51.13640209 -35.56280572 50.70929404 -36.90625 50.28125 C-37.586875 50.06855469 -38.2675 49.85585937 -38.96875 49.63671875 C-62.53325123 42.25015394 -62.53325123 42.25015394 -68 32 C-70.47023705 24.58928885 -70.27831116 14.53535453 -66.9375 7.4375 C-61.66527921 -1.37421733 -54.64974057 -6.65891267 -44.75 -9.25 C-28.80475369 -12.23803594 -13.8146863 -7.84925358 0 0 Z " fill="#F07A1D" transform="translate(4451,1882)"/>
<path d="M0 0 C52.69392523 0 52.69392523 0 63.01953125 9.77734375 C70.24137704 17.88233439 71.63198353 26.27719895 71.41796875 36.80078125 C70.90011014 45.02108559 66.28767252 51.93084805 61 58 C59.10546875 59.51171875 59.10546875 59.51171875 57.1875 60.6875 C56.56230469 61.08324219 55.93710938 61.47898437 55.29296875 61.88671875 C48.10168154 65.37822957 41.42734879 65.24541568 33.5625 65.125 C27.8390625 65.063125 27.8390625 65.063125 22 65 C22 74.9 22 84.8 22 95 C14.74 95 7.48 95 0 95 C0 63.65 0 32.3 0 0 Z M22 20 C22 28.25 22 36.5 22 45 C26.7953125 45.12375 26.7953125 45.12375 31.6875 45.25 C32.68612061 45.28641602 33.68474121 45.32283203 34.71362305 45.36035156 C38.92307531 45.41294321 41.36837577 45.37429584 45.05859375 43.1875 C48.06859966 39.79594405 48.96254046 36.46296449 49.03125 31.9453125 C48.67002904 27.15913479 47.36564653 24.36564653 44 21 C41.59940183 19.79970092 40.10639351 19.88540257 37.4296875 19.90234375 C36.62257324 19.90484131 35.81545898 19.90733887 34.98388672 19.90991211 C33.44498779 19.92356812 33.44498779 19.92356812 31.875 19.9375 C28.61625 19.958125 25.3575 19.97875 22 20 Z " fill="#7890A9" transform="translate(1488,1873)"/>
<path d="M0 0 C6.93 0 13.86 0 21 0 C22.02996094 2.78695313 23.05992187 5.57390625 24.12109375 8.4453125 C24.47933731 9.41454147 24.83758087 10.38377045 25.2066803 11.38237 C27.04686419 16.36108767 28.88623308 21.34010452 30.72436523 26.31958008 C34.37119433 36.19645045 38.02283248 46.07140059 41.70085144 55.93670654 C43.27824265 60.16839785 44.85215389 64.40137962 46.42581177 68.63446045 C47.18324042 70.66884382 47.94241492 72.70257804 48.70333862 74.73565674 C49.76624128 77.57606843 50.82320355 80.41862472 51.87890625 83.26171875 C52.19683136 84.10650284 52.51475647 84.95128693 52.84231567 85.82167053 C53.12839691 86.59554611 53.41447815 87.36942169 53.70922852 88.16674805 C53.95995621 88.83852585 54.2106839 89.51030365 54.4690094 90.20243835 C55 92 55 92 55 95 C47.41 95 39.82 95 32 95 C28 85 28 85 25 74 C15.43 74 5.86 74 -4 74 C-4.99 77.63 -5.98 81.26 -7 85 C-8.98 89.95 -8.98 89.95 -11 95 C-18.59 95 -26.18 95 -34 95 C-30.62444285 83.74814285 -30.62444285 83.74814285 -29.21337891 79.83032227 C-28.89475891 78.94185104 -28.57613892 78.05337982 -28.24786377 77.13798523 C-27.91083435 76.20686417 -27.57380493 75.2757431 -27.2265625 74.31640625 C-26.68573029 72.81307487 -26.68573029 72.81307487 -26.13397217 71.27937317 C-24.96720952 68.03936328 -23.7963118 64.8008678 -22.625 61.5625 C-21.81848761 59.32699813 -21.01201001 57.09148372 -20.20556641 54.85595703 C-13.58554829 36.52749958 -6.83977741 18.24746269 0 0 Z M10 27 C8.57191631 31.09206747 7.14785715 35.18550604 5.72753906 39.28027344 C5.24362265 40.67356297 4.7586014 42.06646928 4.27246094 43.45898438 C3.57457494 45.4586414 2.8806516 47.45963523 2.1875 49.4609375 C1.76855469 50.66540527 1.34960938 51.86987305 0.91796875 53.11083984 C-0.10093713 55.81243568 -0.10093713 55.81243568 0 58 C6.93 58 13.86 58 21 58 C17.7 47.77 14.4 37.54 11 27 C10.67 27 10.34 27 10 27 Z " fill="#5098D8" transform="translate(564,1873)"/>
<path d="M0 0 C0.83265381 0.00523682 1.66530762 0.01047363 2.52319336 0.01586914 C3.42231445 0.0190918 4.32143555 0.02231445 5.24780273 0.02563477 C6.66609375 0.03820313 6.66609375 0.03820313 8.11303711 0.05102539 C9.06243164 0.05553711 10.01182617 0.06004883 10.98999023 0.06469727 C13.3435708 0.0765243 15.69701292 0.09384445 18.05053711 0.11352539 C21.34819801 7.17618659 24.05684534 14.3958911 26.68334961 21.73071289 C27.35160185 23.58304147 28.0198553 25.43536962 28.68816948 27.28767586 C29.61984176 29.87249465 30.54847404 32.45840129 31.47711182 35.04431152 C33.29531414 40.10566053 35.1187112 45.16514122 36.94271088 50.22440338 C37.61895308 52.1004515 38.29461531 53.97670864 38.97027588 55.85296631 C42.59938981 65.91186457 46.30247733 75.9419118 50.04812622 85.95797729 C50.44321381 87.01751617 50.83830139 88.07705505 51.24536133 89.16870117 C51.59509003 90.10287872 51.94481873 91.03705627 52.30514526 91.99954224 C53.05053711 94.11352539 53.05053711 94.11352539 53.05053711 95.11352539 C45.13053711 95.11352539 37.21053711 95.11352539 29.05053711 95.11352539 C26.74053711 88.51352539 24.43053711 81.91352539 22.05053711 75.11352539 C12.48053711 74.78352539 2.91053711 74.45352539 -6.94946289 74.11352539 C-7.60946289 77.08352539 -8.26946289 80.05352539 -8.94946289 83.11352539 C-10.18349066 87.15339003 -11.57193892 91.11870587 -12.94946289 95.11352539 C-20.86946289 95.11352539 -28.78946289 95.11352539 -36.94946289 95.11352539 C-29.05793309 71.8773543 -20.5726094 48.86890223 -12.06567383 25.85229492 C-10.6590025 22.04396406 -9.2616525 18.23241216 -7.87231445 14.41772461 C-7.548367 13.53064316 -7.22441956 12.64356171 -6.89065552 11.729599 C-6.28297528 10.06454324 -5.67745469 8.39869719 -5.07443237 6.73194885 C-2.67029438 0.15550243 -2.67029438 0.15550243 0 0 Z M7.05053711 28.11352539 C5.76302354 31.90187427 4.48144642 35.69217385 3.20532227 39.484375 C2.77042483 40.77398698 2.33391289 42.06305568 1.89575195 43.3515625 C1.26601136 45.20437069 0.64256454 47.05931428 0.01928711 48.91430664 C-0.35776367 50.02974854 -0.73481445 51.14519043 -1.12329102 52.29443359 C-2.09008029 55.1037351 -2.09008029 55.1037351 -1.94946289 58.11352539 C4.65053711 58.11352539 11.25053711 58.11352539 18.05053711 58.11352539 C15.4114451 47.99700604 12.23784565 38.06741775 9.05053711 28.11352539 C8.39053711 28.11352539 7.73053711 28.11352539 7.05053711 28.11352539 Z " fill="#C8824C" transform="translate(3408.949462890625,1872.886474609375)"/>
<path d="M0 0 C0.83265381 0.00523682 1.66530762 0.01047363 2.52319336 0.01586914 C3.42231445 0.0190918 4.32143555 0.02231445 5.24780273 0.02563477 C6.66609375 0.03820313 6.66609375 0.03820313 8.11303711 0.05102539 C9.06243164 0.05553711 10.01182617 0.06004883 10.98999023 0.06469727 C13.3435708 0.0765243 15.69701292 0.09384445 18.05053711 0.11352539 C21.5507742 7.57780022 24.3856221 15.25403173 27.19116211 23.00024414 C27.68167001 24.34725317 28.1724598 25.69415958 28.66351318 27.04096985 C29.95209016 30.57748403 31.23686726 34.1153667 32.52081299 37.65356445 C33.80056336 41.17816227 35.08389075 44.70145677 36.36694336 48.22485352 C38.34670335 53.66257009 40.32368411 59.10128805 42.29858398 64.54077148 C44.04955231 69.36344246 45.80588566 74.18411649 47.56811523 79.00268555 C47.9460321 80.03730423 48.32394897 81.07192291 48.71331787 82.13789368 C49.40901757 84.04183518 50.10592795 85.94533489 50.80426025 87.84831238 C51.10434998 88.6703566 51.4044397 89.49240082 51.71362305 90.33935547 C51.97399353 91.05013748 52.23436401 91.76091949 52.50262451 92.49324036 C53.05053711 94.11352539 53.05053711 94.11352539 53.05053711 95.11352539 C45.13053711 95.11352539 37.21053711 95.11352539 29.05053711 95.11352539 C26.74053711 88.51352539 24.43053711 81.91352539 22.05053711 75.11352539 C12.48053711 74.78352539 2.91053711 74.45352539 -6.94946289 74.11352539 C-7.60946289 77.08352539 -8.26946289 80.05352539 -8.94946289 83.11352539 C-10.18349066 87.15339003 -11.57193892 91.11870587 -12.94946289 95.11352539 C-20.86946289 95.11352539 -28.78946289 95.11352539 -36.94946289 95.11352539 C-31.26214369 78.63270603 -25.39093856 62.23126467 -19.38696289 45.86352539 C-18.5671374 43.6240021 -17.74747555 41.3844189 -16.92797852 39.14477539 C-15.34619416 34.82294115 -13.76196524 30.50201645 -12.17553711 26.18188477 C-10.72332589 22.2269868 -9.27721998 18.26995066 -7.83666992 14.31079102 C-7.19849358 12.56274149 -6.56031042 10.81469446 -5.92211914 9.06665039 C-5.63292099 8.26781433 -5.34372284 7.46897827 -5.04576111 6.64593506 C-2.6705149 0.15551527 -2.6705149 0.15551527 0 0 Z M7.05053711 28.11352539 C5.76302354 31.90187427 4.48144642 35.69217385 3.20532227 39.484375 C2.77042483 40.77398698 2.33391289 42.06305568 1.89575195 43.3515625 C1.26601136 45.20437069 0.64256454 47.05931428 0.01928711 48.91430664 C-0.35776367 50.02974854 -0.73481445 51.14519043 -1.12329102 52.29443359 C-2.09008029 55.1037351 -2.09008029 55.1037351 -1.94946289 58.11352539 C4.65053711 58.11352539 11.25053711 58.11352539 18.05053711 58.11352539 C16.4427255 50.75130045 16.4427255 50.75130045 14.32397461 43.64086914 C14.01459961 42.72241211 13.70522461 41.80395508 13.38647461 40.85766602 C13.06936523 39.93147461 12.75225586 39.0052832 12.42553711 38.05102539 C12.10069336 37.0900293 11.77584961 36.1290332 11.44116211 35.13891602 C10.64842519 32.79567895 9.85149135 30.45396363 9.05053711 28.11352539 C8.39053711 28.11352539 7.73053711 28.11352539 7.05053711 28.11352539 Z " fill="#D3803E" transform="translate(3688.949462890625,1872.886474609375)"/>
<path d="M0 0 C2.22666241 2.53777292 4.18299221 5.15630895 6 8 C4.46642041 12.62233847 0.71292205 14.6356531 -3.125 17.25 C-3.78371094 17.70890625 -4.44242188 18.1678125 -5.12109375 18.640625 C-6.7420005 19.76821231 -8.37029686 20.88516391 -10 22 C-12.16374177 19.85447921 -14.27021048 17.70057758 -16.3125 15.4375 C-22.04533597 10.23795109 -27.35764448 9.37160191 -34.9296875 9.58984375 C-40.67164848 10.35689961 -45.56277128 12.534098 -49.66015625 16.6796875 C-55.90002708 24.86610696 -56.2950279 35.1125648 -55 45 C-52.75552115 52.79166992 -49.11191332 57.87028313 -42.1484375 62.01171875 C-35.44954555 65.09320905 -28.94561435 64.44342192 -22.1484375 61.984375 C-18.03982093 60.10188159 -14.96481456 57.62264266 -12.625 53.6875 C-12.41875 53.130625 -12.2125 52.57375 -12 52 C-7.23448987 53.37605916 -3.2751447 55.46778066 0.875 58.125 C1.46796875 58.49753906 2.0609375 58.87007812 2.671875 59.25390625 C4.1181343 60.16365 5.55958046 61.08103798 7 62 C4.29017497 70.68348376 -0.18995674 74.7586787 -7.85546875 79.38671875 C-19.38200432 85.30033265 -32.76894212 87.20793974 -45.375 83.8125 C-58.67180028 79.06521263 -68.51176758 70.5720036 -75 58 C-81.13454313 44.09006329 -81.17133376 30.48746211 -76 16.24609375 C-70.73869624 4.57257604 -61.21607853 -3.9056438 -49.6171875 -9.05859375 C-32.61008711 -15.25107455 -13.63315793 -11.87250577 0 0 Z " fill="#EC7B22" transform="translate(4322,1884)"/>
<path d="M0 0 C21.45 0 42.9 0 65 0 C65 6.6 65 13.2 65 20 C51.14 20 37.28 20 23 20 C23 26.27 23 32.54 23 39 C25.44277344 38.98839844 27.88554687 38.97679687 30.40234375 38.96484375 C32.75870636 38.95705316 35.11506756 38.95097641 37.47143555 38.94506836 C39.11369464 38.94002826 40.75594923 38.93319622 42.39819336 38.92456055 C44.75375479 38.91248074 47.10925709 38.90676861 49.46484375 38.90234375 C50.20339096 38.89718246 50.94193817 38.89202118 51.7028656 38.88670349 C53.46898088 38.8865075 55.23497146 38.93805281 57 39 C58 40 58 40 58.11352539 41.76586914 C58.10828857 42.51473389 58.10305176 43.26359863 58.09765625 44.03515625 C58.09515869 44.76355713 58.09266113 45.49195801 58.09008789 46.24243164 C58.08098389 47.1730542 58.07187988 48.10367676 58.0625 49.0625 C58.041875 52.011875 58.02125 54.96125 58 58 C46.45 58 34.9 58 23 58 C23 70.21 23 82.42 23 95 C15.41 95 7.82 95 0 95 C0 63.65 0 32.3 0 0 Z " fill="#9F897C" transform="translate(2424,1873)"/>
<path d="M0 0 C8.25 0 16.5 0 25 0 C26.27617187 2.71992187 27.55234375 5.43984375 28.8671875 8.2421875 C30.10394547 10.87044361 31.34218261 13.49799791 32.58056641 16.12548828 C33.44149288 17.95418575 34.30087584 19.78361071 35.15869141 21.61376953 C36.39081787 24.24183118 37.62844239 26.86724035 38.8671875 29.4921875 C39.25059296 30.31306854 39.63399841 31.13394958 40.02902222 31.97970581 C40.38924469 32.74034332 40.74946716 33.50098083 41.12060547 34.28466797 C41.43593231 34.95529266 41.75125916 35.62591736 42.07614136 36.31686401 C43.00055077 38.18696941 43.00055077 38.18696941 45 40 C47.38668115 35.10810403 49.77105323 30.21509198 52.15332031 25.32104492 C52.96356321 23.65732675 53.77442915 21.99391184 54.5859375 20.33081055 C55.75425693 17.93618524 56.92030956 15.54046761 58.0859375 13.14453125 C58.44746918 12.4047554 58.80900085 11.66497955 59.18148804 10.90278625 C59.52168976 10.20243759 59.86189148 9.50208893 60.21240234 8.78051758 C60.65874527 7.8645153 60.65874527 7.8645153 61.11410522 6.93000793 C62.15797226 4.65584207 63.07067034 2.32332415 64 0 C72.25 0 80.5 0 89 0 C87.66718586 3.99844241 86.64286864 6.94099795 84.671875 10.484375 C84.20845703 11.32476318 83.74503906 12.16515137 83.26757812 13.03100586 C82.76677734 13.92827393 82.26597656 14.82554199 81.75 15.75 C80.6710675 17.70398143 79.59297969 19.65842944 78.515625 21.61328125 C77.94650391 22.64404785 77.37738281 23.67481445 76.79101562 24.73681641 C73.05188614 31.54941246 69.39325095 38.40571885 65.72167969 45.25488281 C65.16383789 46.29354492 64.60599609 47.33220703 64.03125 48.40234375 C63.54205078 49.31491943 63.05285156 50.22749512 62.54882812 51.16772461 C61.39757942 53.27296361 60.14733531 55.32466859 58.84863281 57.34228516 C56.6716893 61.15164454 56.39813178 64.79789778 56.390625 69.12109375 C56.37408875 69.86585464 56.35755249 70.61061554 56.34051514 71.37794495 C56.29235387 73.73121647 56.27073706 76.08384349 56.25 78.4375 C56.22181337 80.04365167 56.19188221 81.64977372 56.16015625 83.25585938 C56.0833519 87.17086018 56.04254338 91.08388146 56 95 C48.41 95 40.82 95 33 95 C33.10183594 92.95425781 33.20367188 90.90851563 33.30859375 88.80078125 C33.96663218 67.97813077 29.78235966 53.97125701 19.00244141 36.31689453 C15.93239739 31.23159606 13.17300341 25.98802367 10.375 20.75 C9.44867184 19.05545095 8.51917674 17.36262776 7.5859375 15.671875 C7.16022461 14.89908203 6.73451172 14.12628906 6.29589844 13.33007812 C5.39150252 11.70393746 4.47729401 10.08323236 3.55566406 8.46679688 C3.09643555 7.65791016 2.63720703 6.84902344 2.1640625 6.015625 C1.74850098 5.29149414 1.33293945 4.56736328 0.90478516 3.82128906 C0 2 0 2 0 0 Z " fill="#DD7E33" transform="translate(3893,1873)"/>
<path d="M0 0 C26.73 0 53.46 0 81 0 C81 6.6 81 13.2 81 20 C71.43 20 61.86 20 52 20 C52 44.75 52 69.5 52 95 C44.41 95 36.82 95 29 95 C29 70.25 29 45.5 29 20 C19.43 20 9.86 20 0 20 C0 13.4 0 6.8 0 0 Z " fill="#6494C1" transform="translate(1007,1873)"/>
<path d="M0 0 C26.4 0 52.8 0 80 0 C80 6.6 80 13.2 80 20 C70.43 20 60.86 20 51 20 C51 44.75 51 69.5 51 95 C43.74 95 36.48 95 29 95 C29 70.25 29 45.5 29 20 C19.43 20 9.86 20 0 20 C0 13.4 0 6.8 0 0 Z " fill="#E37D2C" transform="translate(4028,1873)"/>
<path d="M0 0 C7.59 0 15.18 0 23 0 C23 24.75 23 49.5 23 75 C38.18 75 53.36 75 69 75 C69 81.6 69 88.2 69 95 C46.23 95 23.46 95 0 95 C0 63.65 0 32.3 0 0 Z " fill="#D87F39" transform="translate(3795,1873)"/>
<path d="M0 0 C7.59 0 15.18 0 23 0 C23 24.75 23 49.5 23 75 C37.85 75 52.7 75 68 75 C68 81.6 68 88.2 68 95 C45.56 95 23.12 95 0 95 C0 63.65 0 32.3 0 0 Z " fill="#4599E4" transform="translate(291,1873)"/>
<path d="M0 0 C7.59 0 15.18 0 23 0 C23 31.35 23 62.7 23 95 C15.41 95 7.82 95 0 95 C0 63.65 0 32.3 0 0 Z " fill="#E87C27" transform="translate(4163,1873)"/>
<path d="M0 0 C0.33 0 0.66 0 1 0 C1.66 6.27 2.32 12.54 3 19 C2.01 19 1.02 19 0 19 C0 12.73 0 6.46 0 0 Z " fill="#F28F4E" transform="translate(2272,627)"/>
</svg>
